<svg width="259" height="82" viewBox="0 0 259 82" fill="none" xmlns="http://www.w3.org/2000/svg">
<g clip-path="url(#clip0_2_316)">
<path d="M4.90358 26.4901L2.7593 33.8089H-0.00891113L7.02149 10.5314H10.2379L17.2683 33.8089H14.4122L12.2064 26.4901H4.90358ZM11.6791 24.1386L9.65789 17.4363C9.20092 15.9214 8.89333 14.5387 8.58575 13.1912H8.52425C8.21666 14.5739 7.87393 15.9919 7.47847 17.4099L5.45723 24.1386H11.6791Z" fill="#1D1D1B"/>
<path d="M30.9162 33.1924C29.5916 33.8557 28.1256 34.1852 26.6452 34.1524C22.1721 34.1524 19.2545 30.7352 19.2545 25.627C19.2545 20.5188 22.383 16.7493 27.234 16.7493C28.5338 16.7427 29.8167 17.0445 30.9777 17.63L30.3626 19.9816C29.4166 19.4233 28.331 19.1483 27.234 19.1889C23.8243 19.1889 21.9612 22.016 21.9612 25.5037C21.9612 29.3701 24.167 31.7568 27.111 31.7568C28.2667 31.7601 29.4052 31.4756 30.4241 30.9289L30.9162 33.1924Z" fill="#1D1D1B"/>
<path d="M44.3179 33.1924C42.9961 33.8546 41.5331 34.1841 40.0557 34.1524C35.5738 34.1524 32.665 30.7352 32.665 25.627C32.665 20.5188 35.7935 16.7493 40.6357 16.7493C41.9355 16.7427 43.2183 17.0445 44.3794 17.63L43.7642 19.9816C42.8189 19.422 41.7328 19.1468 40.6357 19.1889C37.2347 19.1889 35.3629 22.016 35.3629 25.5037C35.3629 29.3701 37.5687 31.7568 40.5127 31.7568C41.6684 31.7601 42.8068 31.4756 43.8258 30.9289L44.3179 33.1924Z" fill="#1D1D1B"/>
<path d="M50.3552 12.3986C50.3788 12.6369 50.3518 12.8776 50.2761 13.1048C50.2003 13.332 50.0775 13.5405 49.9157 13.7168C49.7539 13.8931 49.5568 14.0332 49.3372 14.1277C49.1176 14.2223 48.8806 14.2693 48.6416 14.2657C48.1798 14.2318 47.7501 14.0167 47.4457 13.6671C47.1413 13.3175 46.9868 12.8616 47.0158 12.3986C46.9967 12.1615 47.0256 11.923 47.1009 11.6975C47.1763 11.4719 47.2964 11.264 47.454 11.0862C47.6117 10.9085 47.8037 10.7645 48.0183 10.6631C48.233 10.5617 48.4659 10.5049 48.7031 10.4962C48.9372 10.5095 49.1663 10.5696 49.3769 10.6731C49.5875 10.7765 49.7753 10.9211 49.9293 11.0984C50.0832 11.2757 50.2002 11.482 50.2734 11.7053C50.3465 11.9286 50.3744 12.1643 50.3552 12.3986ZM47.3497 33.8089V17.0752H50.0828V33.8089H47.3497Z" fill="#1D1D1B"/>
<path d="M67.8434 25.3188C67.8434 31.4838 64.0382 34.1876 60.4527 34.1876C56.4366 34.1876 53.3344 30.8761 53.3344 25.5918C53.3344 19.9992 56.586 16.7141 60.6988 16.7141C64.9609 16.7141 67.8434 20.2018 67.8434 25.3188ZM56.0675 25.4861C56.0675 29.1499 57.9305 31.9154 60.5757 31.9154C63.2209 31.9154 65.084 29.1851 65.084 25.4156C65.084 22.5885 63.8273 18.9952 60.6372 18.9952C57.4472 18.9952 56.0675 22.3067 56.0675 25.4861ZM64.6182 9.8797L60.8833 14.8117H58.9499L61.6479 9.8797H64.6182Z" fill="#1D1D1B"/>
<path d="M71.1213 21.5845C71.1213 19.823 71.1213 18.4403 70.9983 17.0576H73.3974L73.5468 19.823H73.6083C74.0411 18.8846 74.7328 18.0899 75.6017 17.5327C76.4706 16.9756 77.4805 16.6793 78.512 16.6789C80.5684 16.6789 83.7848 18.0616 83.7848 23.7951V33.7737H81.0869V24.1738C81.0869 21.4788 80.2081 19.233 77.6508 19.233C76.792 19.2859 75.9738 19.618 75.3204 20.1791C74.667 20.7402 74.214 21.4995 74.0301 22.3419C73.8992 22.8029 73.837 23.2807 73.8456 23.7599V33.8089H71.1477L71.1213 21.5845Z" fill="#1D1D1B"/>
<path d="M93.8734 28.3925C95.4328 29.2982 97.195 29.795 98.9968 29.8368C101.124 29.8368 102.248 28.8416 102.248 27.318C102.248 25.7943 101.273 25.0369 98.8211 24.0417C95.4201 22.6942 93.2055 20.5188 93.2055 17.1633C93.2055 13.1912 96.1144 10.1175 100.939 10.1175C102.747 10.0854 104.537 10.487 106.159 11.2888L105.122 15.5427C103.816 14.8148 102.346 14.4329 100.851 14.433C98.8474 14.433 97.8808 15.4723 97.8808 16.6789C97.8808 18.1673 99.032 18.819 101.668 19.964C105.28 21.4788 106.941 23.6189 106.941 26.904C106.941 30.8056 104.305 34.1171 98.6892 34.1171C96.6717 34.1394 94.6807 33.6549 92.8979 32.708L93.8734 28.3925Z" fill="#CD1719"/>
<path d="M124.658 25.1778C124.658 31.3429 120.809 34.1876 116.828 34.1876C112.495 34.1876 109.156 30.9466 109.156 25.4861C109.156 20.0256 112.311 16.5468 117.065 16.5468C121.626 16.5468 124.658 20.0961 124.658 25.1778ZM113.919 25.3452C113.919 28.2516 114.982 30.4269 116.951 30.4269C118.708 30.4269 119.895 28.3925 119.895 25.3452C119.895 22.8263 119.016 20.2722 116.951 20.2722C114.886 20.2722 113.919 22.8615 113.919 25.3452Z" fill="#CD1719"/>
<path d="M138.604 33.395C137.299 33.935 135.895 34.1931 134.483 34.1524C129.693 34.1524 126.626 30.8409 126.626 25.5213C126.626 20.5805 129.597 16.5468 135.116 16.5468C136.318 16.5416 137.51 16.7627 138.631 17.1985L137.901 21.1001C137.095 20.7275 136.213 20.5496 135.326 20.5805C132.892 20.5805 131.319 22.5533 131.345 25.3188C131.345 28.4277 133.173 30.0482 135.414 30.0482C136.32 30.0645 137.219 29.8874 138.051 29.5286L138.604 33.395Z" fill="#CD1719"/>
<path d="M145.793 12.2224C145.817 12.563 145.771 12.905 145.656 13.2266C145.542 13.5482 145.362 13.8426 145.129 14.091C144.895 14.3393 144.612 14.5364 144.298 14.6695C143.985 14.8027 143.647 14.8691 143.306 14.8646C142.607 14.8646 141.936 14.5862 141.442 14.0907C140.947 13.5952 140.67 12.9232 140.67 12.2224C140.67 11.5217 140.947 10.8496 141.442 10.3541C141.936 9.85862 142.607 9.58025 143.306 9.58025C143.646 9.57704 143.984 9.64436 144.297 9.77799C144.61 9.91161 144.892 10.1087 145.126 10.3568C145.359 10.6049 145.539 10.8986 145.654 11.2197C145.769 11.5407 145.816 11.8821 145.793 12.2224ZM141.03 33.8089V16.9255H145.644V33.8089H141.03Z" fill="#CD1719"/>
<path d="M157.648 33.8089L157.376 32.1179H157.296C156.81 32.7825 156.169 33.3183 155.43 33.679C154.69 34.0396 153.874 34.2142 153.052 34.1876C150.046 34.1876 148.254 31.704 148.254 29.009C148.254 24.6053 151.716 22.518 156.963 22.5533V22.3067C156.963 21.426 156.541 20.1313 154.265 20.1313C152.806 20.1552 151.384 20.5984 150.169 21.4083L149.291 18.0264C151.043 17.0194 153.036 16.508 155.056 16.5467C160.003 16.5467 161.576 19.8583 161.576 23.8303V29.7047C161.553 31.076 161.623 32.4473 161.787 33.8089H157.648ZM157.103 25.8296C154.678 25.8296 152.797 26.4549 152.797 28.4717C152.761 28.7281 152.781 28.9894 152.857 29.237C152.933 29.4846 153.062 29.7124 153.236 29.9041C153.409 30.0959 153.623 30.2469 153.862 30.3464C154.1 30.4459 154.358 30.4914 154.616 30.4798C155.171 30.4592 155.704 30.2595 156.137 29.9103C156.569 29.5611 156.877 29.0812 157.015 28.5422C157.076 28.2526 157.105 27.9573 157.103 27.6615V25.8296Z" fill="#CD1719"/>
<path d="M165.083 9.25438H169.688V33.7737H165.083V9.25438Z" fill="#CD1719"/>
<path d="M206.175 27.0185C207.231 26.0055 208.413 25.1323 209.691 24.4204C212.6 22.6938 215.87 21.6715 219.243 21.4348C222.762 21.11 226.308 21.641 229.579 22.9826C232.85 24.3241 235.749 26.4367 238.032 29.1411C241.039 32.5036 242.888 36.7461 243.305 41.2422C243.77 44.878 243.32 48.5727 241.995 51.9895C240.671 55.4062 238.514 58.4362 235.721 60.803C232.649 63.5757 228.832 65.3826 224.744 65.9993C221.636 66.5426 218.448 66.4152 215.393 65.6254C212.338 64.8357 209.486 63.4018 207.028 61.4195C206.934 61.3413 206.845 61.2559 206.764 61.1641C206.789 61.1211 206.83 61.0896 206.878 61.0761C207.118 61.1226 207.333 61.2538 207.485 61.446C207.757 61.7102 207.977 61.7278 208.214 61.446C208.396 61.4905 208.56 61.5924 208.68 61.7366C208.6 61.6209 208.566 61.4798 208.583 61.3403C208.626 61.2363 208.691 61.1433 208.775 61.0686C208.859 60.9938 208.959 60.9391 209.067 60.9087C209.691 61.305 210.024 62.0184 210.631 62.4324C210.868 62.5997 211.061 62.8287 211.343 63.0048C210.987 62.0875 210.765 61.1234 210.684 60.1425C210.77 60.0239 210.89 59.9338 211.027 59.8836C211.165 59.8334 211.315 59.8254 211.457 59.8607C211.59 60.1365 211.667 60.4357 211.685 60.7414C211.79 61.7147 212.128 62.6482 212.67 63.4628C212.775 63.6037 212.863 63.8151 213.048 63.7975C213.232 63.7799 213.267 63.5333 213.32 63.3747C214.005 61.4372 214.796 59.5348 215.429 57.5796C215.754 57.2009 215.983 56.6989 216.615 56.8134C216.743 57.0243 216.948 57.1763 217.187 57.2361C218.268 57.606 219.357 57.9231 220.465 58.2137C220.611 58.2654 220.771 58.2607 220.914 58.2005C221.057 58.1402 221.173 58.0288 221.238 57.8878C222.229 56.3409 223.141 54.7448 223.971 53.1055C224.129 52.7885 224.112 52.674 223.751 52.5595C222.468 52.1543 221.194 51.7228 219.929 51.2384C219.586 51.0311 219.183 50.9472 218.786 51.0006C218.296 50.8005 217.844 50.5175 217.45 50.1639C217.178 49.9349 217.257 49.565 217.327 49.2392C217.573 49.1775 217.749 49.3536 217.951 49.4505C218.153 49.5474 218.452 49.521 218.584 49.1775C218.962 48.1294 219.357 47.0814 219.735 46.0333C219.911 45.5489 220.104 45.0733 220.28 44.5801C220.312 44.5231 220.33 44.4593 220.332 44.394C220.334 44.3287 220.321 44.2637 220.294 44.2045C220.267 44.1452 220.226 44.0933 220.174 44.0529C220.123 44.0126 220.063 43.985 219.999 43.9724C218.452 43.3735 216.923 42.7306 215.376 42.1141C215.016 41.9732 214.84 42.0348 214.726 42.4136C214.612 42.7923 214.48 43.0389 214.41 43.3736C214.391 43.4772 214.358 43.5779 214.313 43.673C214.137 44.131 214.005 44.5978 213.847 45.0645C213.777 45.2495 213.759 45.4785 213.522 45.5577C213.285 45.637 213.109 45.2319 213.021 44.9677C213.063 44.43 213.203 43.9046 213.434 43.4176C213.514 43.3532 213.574 43.2682 213.608 43.1719C213.642 43.0755 213.649 42.9716 213.628 42.8715C213.669 42.6115 213.749 42.3592 213.865 42.1229C214.023 41.7178 213.918 41.4888 213.522 41.3567C212.942 41.1629 212.38 40.8987 211.808 40.6697C211.659 40.6081 211.457 40.6081 211.413 40.3791C211.606 40.1149 211.51 39.7009 211.835 39.4984C212.511 39.9782 213.262 40.3414 214.058 40.5728C214.097 40.5927 214.141 40.6036 214.185 40.6048C214.229 40.606 214.272 40.5975 214.313 40.5798C214.353 40.5622 214.389 40.5358 214.418 40.5026C214.447 40.4695 214.468 40.4303 214.48 40.3879C214.911 39.2254 215.491 38.1333 215.833 36.9267C216.044 36.5039 216.273 36.0988 216.774 35.9755C216.985 35.9226 217.196 35.8786 217.204 36.2133C216.782 37.3846 216.202 38.4767 215.772 39.6393C215.658 39.9563 215.535 40.2646 215.403 40.5728C215.271 40.8811 215.315 41.1013 215.658 41.2334C217.248 41.8499 218.839 42.5016 220.412 43.1534C220.658 43.2591 220.79 43.1974 220.886 42.942C221.502 41.3215 222.082 39.6833 222.697 38.0628C222.73 38.0103 222.749 37.9504 222.753 37.8886C222.757 37.8267 222.745 37.7649 222.719 37.7088C222.692 37.6527 222.652 37.6041 222.603 37.5674C222.553 37.5308 222.494 37.5073 222.433 37.4991C222.233 37.442 222.043 37.3528 221.871 37.2349C221.731 36.9288 221.477 36.6895 221.163 36.5678C220.85 36.4461 220.502 36.4516 220.192 36.5832C219.834 36.5877 219.485 36.4731 219.199 36.2573C219.122 36.1226 219.015 36.0069 218.888 35.9186C218.76 35.8302 218.614 35.7714 218.461 35.7465C218.18 35.6496 217.89 35.5175 218.066 35.1036C218.259 35.0155 218.435 35.1036 218.619 35.1036C219.441 35.5243 220.336 35.7815 221.256 35.861C221.423 36.1604 221.73 36.1869 222.003 36.2925C223.18 36.7241 223.18 36.7241 223.637 35.5439C223.953 34.7337 224.226 33.9146 224.516 33.1043C224.586 32.9018 224.63 32.6816 224.832 32.5671C224.933 32.5216 225.042 32.4981 225.153 32.4981C225.264 32.4981 225.373 32.5216 225.474 32.5671C225.685 32.7873 225.527 32.9986 225.474 33.2012C225.07 34.3197 224.665 35.4382 224.243 36.548C224.077 36.9707 224.191 37.1468 224.577 37.3054C225.94 37.8602 227.275 38.4767 228.594 39.1373C229.059 39.3663 229.094 39.3486 229.217 38.8378C229.674 37.0455 230.026 35.2282 230.272 33.395C230.315 33.2325 230.297 33.0601 230.223 32.9096C230.149 32.7591 230.022 32.6405 229.868 32.5759C229.226 32.2324 228.585 31.8889 227.917 31.5895C227.706 31.5014 227.398 31.4662 227.407 31.1051C227.48 31.0642 227.561 31.0427 227.644 31.0427C227.728 31.0427 227.809 31.0642 227.882 31.1051C228.286 31.2237 228.716 31.2237 229.121 31.1051C229.455 31.29 229.78 31.4838 230.114 31.6599C230.448 31.8361 230.465 31.7392 230.474 31.4574C230.483 31.1756 230.421 30.9466 230.641 30.7616C230.741 30.7139 230.851 30.6891 230.962 30.6891C231.073 30.6891 231.182 30.7139 231.283 30.7616C231.538 31.0434 231.362 31.3781 231.344 31.6423C231.323 31.859 231.367 32.077 231.47 32.2685C231.574 32.4599 231.732 32.616 231.924 32.7168C233.379 33.5938 234.742 34.6146 235.993 35.7641C235.836 33.3705 235.221 31.0294 234.183 28.8681C234.08 28.7219 234.005 28.5576 233.963 28.3837C233.941 28.1611 233.941 27.9369 233.963 27.7143C233.963 27.5294 233.963 27.318 234.262 27.318C234.476 27.4715 234.638 27.6865 234.728 27.9345C235.941 30.233 236.654 32.7636 236.819 35.359C236.813 35.7885 236.901 36.214 237.075 36.6063C237.25 36.9987 237.507 37.3483 237.83 37.6312C238.358 38.0403 238.77 38.5808 239.025 39.1989C238.825 39.4199 238.548 39.5555 238.252 39.5776C237.878 39.0777 237.457 38.6147 236.995 38.1949C236.837 38.8995 237.135 39.6305 236.784 40.2822C236.701 40.3772 236.59 40.4442 236.468 40.4741C236.345 40.5041 236.216 40.4955 236.099 40.4495C236.048 40.3877 236.014 40.3144 235.998 40.236C235.983 40.1577 235.987 40.0767 236.011 40.0004C236.068 39.2209 236.085 38.439 236.063 37.6577C236.069 37.4984 236.038 37.34 235.973 37.1948C235.907 37.0496 235.809 36.9217 235.685 36.821C234.434 35.682 233.09 34.648 231.669 33.7296C231.239 33.4566 231.212 33.4742 231.133 33.9851C230.876 35.7968 230.521 37.5931 230.07 39.3663C230.037 39.4427 230.02 39.5253 230.021 39.6087C230.021 39.6921 230.04 39.7744 230.075 39.8501C230.11 39.9259 230.16 39.9933 230.223 40.0481C230.286 40.1028 230.359 40.1436 230.439 40.1677C231.379 40.6433 232.284 41.1982 233.19 41.7442C233.385 41.8264 233.544 41.9765 233.638 42.167C233.515 42.4224 233.304 42.3167 233.163 42.2286C233.042 42.149 232.9 42.1067 232.755 42.1067C232.61 42.1067 232.468 42.149 232.346 42.2286C231.839 42.0594 231.359 41.8161 230.922 41.5064C230.536 41.3127 230.14 40.8811 229.78 40.9868C229.42 41.0925 229.455 41.7178 229.341 42.1141C228.98 43.3207 228.585 44.5185 228.163 45.6987C228.014 46.1214 228.101 46.324 228.497 46.4473C228.702 46.4862 228.895 46.5738 229.059 46.7027C229.059 47.1871 228.681 47.2928 228.339 47.4161C228.253 47.3993 228.172 47.3631 228.101 47.3104C227.785 47.1166 227.6 47.2135 227.477 47.557C227.047 48.7283 226.537 49.8557 226.045 50.9918C225.948 51.2208 225.852 51.4586 225.737 51.67C225.623 51.8813 225.562 52.216 225.992 52.3041C226.836 52.5466 227.693 52.7407 228.558 52.8853C228.923 53.1868 229.344 53.4114 229.797 53.5459C230.019 53.6473 230.263 53.6907 230.505 53.6723C230.748 53.6538 230.982 53.5739 231.186 53.4402C231.352 53.5217 231.542 53.5434 231.722 53.5019C232.14 53.7026 232.482 54.0331 232.698 54.4442C232.384 54.5881 232.127 54.833 231.968 55.14C231.125 56.5074 230.176 57.806 229.13 59.024C230.434 58.9669 231.726 58.751 232.979 58.3811C233.077 58.5267 233.129 58.6985 233.129 58.8743C233.129 59.05 233.077 59.2218 232.979 59.3675C231.577 59.7245 230.143 59.9428 228.699 60.0192C228.405 60.0336 228.124 60.1451 227.899 60.3363C227.117 61.032 226.379 61.7806 225.535 62.3971C223.766 63.7749 221.736 64.7787 219.568 65.3476C219.368 65.4048 219.161 65.4402 218.953 65.4532C218.81 65.432 218.665 65.432 218.523 65.4532C218.523 65.4532 218.672 65.4532 218.786 65.4532C219.665 65.5061 220.544 65.5237 221.423 65.5149C224.706 65.468 227.935 64.6665 230.861 63.1722C231.005 63.0785 231.162 63.0073 231.327 62.9608C231.617 63.2955 231.871 63.2074 232.205 62.9608C236.782 60.2925 240.243 56.0578 241.951 51.0358C242.069 50.7172 242.088 50.37 242.004 50.0406C241.881 49.7454 241.801 49.4339 241.767 49.1159C241.785 48.8524 241.835 48.5922 241.916 48.3408C241.929 48.3243 241.946 48.311 241.965 48.3018C241.984 48.2926 242.005 48.2879 242.026 48.2879C242.047 48.2879 242.068 48.2926 242.087 48.3018C242.106 48.311 242.123 48.3243 242.136 48.3408C242.566 48.5962 242.716 48.3408 242.769 47.9621C242.782 47.7708 242.818 47.5817 242.874 47.3984C242.953 47.1254 242.821 47.0021 242.619 46.9052C242.549 46.6864 242.531 46.4542 242.566 46.2271C242.506 45.9953 242.514 45.7508 242.591 45.5238C242.667 45.2968 242.808 45.0973 242.997 44.95C243.059 44.887 243.105 44.8105 243.133 44.7265C243.16 44.6424 243.168 44.5531 243.155 44.4656C243.166 43.1512 243.075 41.838 242.883 40.5376C242.873 40.4159 242.832 40.2987 242.764 40.197C242.697 40.0953 242.604 40.0125 242.496 39.9563C242.235 39.4543 242.071 38.9075 242.013 38.3446C242.54 37.3494 241.811 36.5832 241.582 35.7025C241.529 35.4735 241.371 35.8698 241.231 35.7025C240.832 35.0199 240.474 34.3141 240.159 33.5887C238.979 31.4128 237.437 29.4557 235.598 27.8024C235.509 27.746 235.434 27.6697 235.379 27.5796C235.324 27.4895 235.291 27.3879 235.281 27.2828C235.309 27.1706 235.301 27.0526 235.258 26.9453C235.216 26.8379 235.141 26.7465 235.044 26.6839C232.962 24.9954 230.596 23.6922 228.057 22.8351C226.33 22.2736 224.548 21.9015 222.741 21.7254C222.108 21.6638 221.466 21.7254 220.834 21.7254C220.447 21.7254 220.535 22.0248 220.403 22.1922C219.556 22.3772 218.694 22.4833 217.828 22.5092C217.828 22.5092 217.705 22.5092 217.688 22.5092C217.389 21.8839 216.897 22.1217 216.44 22.201L215.992 22.3067C215.394 22.4652 214.717 22.5004 214.515 23.2931C214.172 23.4428 213.812 23.5133 213.487 23.6894C213.281 23.7283 213.081 23.7904 212.889 23.8744C212.636 23.9482 212.392 24.0486 212.16 24.1738C212.107 24.1738 212.055 24.1738 212.011 24.1738C211.633 24.0955 211.243 24.1031 210.869 24.196C210.495 24.289 210.146 24.465 209.849 24.7111C208.788 25.3395 207.777 26.0491 206.826 26.8336C206.682 26.9802 206.499 27.0812 206.298 27.1242C206.245 27.1221 206.195 27.1001 206.158 27.0626" fill="#999999"/>
<path d="M206.79 61.1641C205.47 60.1494 204.288 58.9649 203.275 57.6412C200.812 54.5311 199.249 50.8017 198.758 46.8612C198.034 41.7112 199.142 36.4701 201.887 32.0563C201.917 32.014 201.953 31.9756 201.992 31.9418C202.015 31.9496 202.035 31.9636 202.051 31.9822C202.066 32.0009 202.077 32.0235 202.08 32.0475C202.03 32.3732 201.89 32.6783 201.676 32.9282C201.588 33.0466 201.541 33.1902 201.541 33.3377C201.541 33.4852 201.588 33.6288 201.676 33.7473C201.762 33.8584 201.826 33.9859 201.862 34.122C201.898 34.2582 201.907 34.4004 201.887 34.5399C201.711 34.8658 201.316 34.9715 201.14 35.359C201.515 35.5782 201.925 35.7302 202.353 35.8081C202.458 35.9256 202.53 36.0694 202.561 36.2244C202.592 36.3793 202.581 36.5398 202.528 36.6889C202.405 36.865 202.256 36.7946 202.106 36.7505C201.957 36.7065 201.729 36.5832 201.526 36.5215C201.324 36.4599 201.087 36.2045 200.911 36.3718C200.736 36.5391 200.911 36.8738 200.911 37.1204C201.198 37.9955 201.675 38.7958 202.309 39.4631C203.231 40.541 204.265 41.5182 205.393 42.3783C205.841 42.713 205.841 42.7218 206.008 42.2022C206.021 42.1233 206.051 42.0481 206.095 41.9814C206.139 41.9146 206.196 41.8579 206.263 41.8147C206.405 41.7966 206.549 41.8183 206.68 41.8774C206.81 41.9365 206.921 42.0306 207.001 42.1494C206.527 43.6114 206.641 43.3119 207.599 43.9901C208.1 44.3512 208.627 44.677 209.163 45.0029C209.291 45.0921 209.423 45.1745 209.559 45.2495C209.719 45.3481 209.834 45.5055 209.88 45.6881C209.926 45.8708 209.899 46.0642 209.805 46.2271C209.506 46.3856 209.286 46.1566 209.058 46.0245C208.302 45.593 207.581 45.1438 206.861 44.6242C206.544 44.404 206.439 44.4656 206.377 44.8532C206.113 46.4487 205.972 48.0623 205.956 49.6795C205.943 49.934 205.991 50.1879 206.095 50.4205C206.198 50.6531 206.356 50.8579 206.553 51.0182C207.452 51.817 208.4 52.5582 209.392 53.2376C209.47 53.2784 209.539 53.3355 209.594 53.405C209.622 53.5433 209.606 53.6869 209.549 53.8161C209.493 53.9453 209.398 54.0539 209.277 54.1272C209.005 54.1888 208.812 54.0039 208.618 53.8629C207.74 53.2552 206.957 52.6035 206.07 51.8285C206.219 53.9127 206.684 55.9619 207.45 57.9055C207.45 58.293 207.256 58.5572 206.843 58.566C206.467 57.9628 206.191 57.3025 206.026 56.6108C205.516 54.924 205.206 53.1828 205.103 51.4234C205.076 51 204.883 50.6044 204.567 50.3225C202.641 48.4428 201.142 46.1687 200.173 43.6554C199.786 42.7486 199.549 41.7849 199.47 40.8018C198.653 48.4906 201.026 54.8406 206.5 59.9664C206.615 60.3274 206.5 60.759 206.755 61.0849L206.703 61.1465" fill="#999999"/>
<path d="M206.175 27.0185H206.316C206.316 27.2299 206.202 27.3444 206.07 27.4589C204.774 28.617 203.628 29.9337 202.66 31.3781C202.511 31.5983 202.405 31.8889 202.089 31.9506L202.027 31.9065C203.129 30.0544 204.53 28.3994 206.175 27.0097" fill="#8C96A6"/>
<path d="M202.115 31.9594C203.318 30.1488 204.738 28.4925 206.342 27.0273C207.524 26.0599 208.772 25.177 210.077 24.3852C210.388 24.1756 210.741 24.035 211.11 23.9728C211.48 23.9105 211.859 23.928 212.221 24.0241C212.49 23.9895 212.742 23.8796 212.951 23.707C213.118 23.6366 213.267 23.4868 213.469 23.5837C213.83 23.5837 213.953 23.9096 214.093 24.1474C214.195 24.3466 214.355 24.5108 214.55 24.619C214.746 24.7272 214.969 24.7746 215.192 24.7551C215.46 24.7088 215.735 24.7455 215.982 24.8604C216.229 24.9753 216.434 25.1629 216.572 25.398C216.721 26.0938 216.572 26.2787 215.939 26.4285L215.491 26.5077C214.863 26.5159 214.252 26.7088 213.733 27.0626C213.329 27.3796 212.714 27.3796 212.397 27.8905C212.206 28.1066 212.078 28.3719 212.028 28.6567C212.028 29.0266 212.283 29.097 212.52 29.2115C212.758 29.326 212.916 29.7224 213.118 29.969C213.456 30.093 213.752 30.3099 213.973 30.595C214.194 30.88 214.33 31.2217 214.366 31.5807C214.569 31.2091 214.874 30.9035 215.245 30.7C215.287 30.6665 215.319 30.6206 215.334 30.5686C215.35 30.5165 215.349 30.4609 215.332 30.4093C215.165 29.8721 215.491 29.3613 215.403 28.8328C215.396 28.7613 215.41 28.6894 215.443 28.6254C215.475 28.5615 215.525 28.5082 215.587 28.4717C215.671 28.4324 215.763 28.412 215.855 28.412C215.948 28.412 216.039 28.4324 216.123 28.4717C216.594 28.6324 217.045 28.8451 217.468 29.1058C217.935 29.4427 218.295 29.9075 218.505 30.4445C218.61 30.7264 218.76 30.9466 219.102 30.9025C219.227 30.8508 219.362 30.8317 219.496 30.8471C219.63 30.8625 219.758 30.9119 219.867 30.9906C219.975 31.107 220.054 31.2477 220.097 31.401C220.14 31.5542 220.145 31.7155 220.113 31.8713C220.034 32.4966 220.166 32.6992 220.737 32.9722C220.843 33.0251 221.036 33.0779 220.966 33.2012C220.693 33.6151 221.018 33.7384 221.238 33.941C221.32 34.0107 221.376 34.1061 221.396 34.2116C221.417 34.3172 221.402 34.4267 221.352 34.5223C221.24 34.7229 221.177 34.9476 221.17 35.1775C221.162 35.4074 221.209 35.6358 221.308 35.8434C221.314 35.87 221.314 35.8978 221.306 35.924C221.298 35.9503 221.284 35.9741 221.264 35.9931C220.334 35.9781 219.425 35.7168 218.628 35.2357C218.496 35.1564 218.364 35.0771 218.241 34.9891C218.118 34.901 218.162 34.8305 218.101 34.9362C218.039 35.0419 218.101 35.0595 218.101 35.13C218.101 35.5175 218.399 35.588 218.689 35.676C218.979 35.7641 219.322 35.7289 219.234 36.1957C219.21 36.2712 219.163 36.3377 219.1 36.3864C219.038 36.4351 218.962 36.4637 218.883 36.4687C218.478 36.5088 218.077 36.5884 217.688 36.7065C217.38 36.7946 217.108 36.6536 217.134 36.2309C217.134 35.9931 217.046 36.0459 216.888 36.0724C216.387 36.1516 216.185 36.5744 215.921 36.9531C215.658 37.3318 215.464 37.1997 215.183 37.1645C214.834 37.1019 214.475 37.1538 214.158 37.3125C213.842 37.4712 213.585 37.7282 213.425 38.0452C213.32 38.2301 213.215 38.4591 213.03 38.512C212.531 38.6954 212.113 39.0514 211.852 39.516C211.624 39.7538 211.852 40.2382 211.457 40.3967C211.402 40.4088 211.345 40.4024 211.294 40.3785C211.243 40.3546 211.201 40.3146 211.176 40.2646C211.065 40.0365 211.005 39.7871 211 39.5336C210.973 39.3708 210.913 39.2153 210.824 39.0765C210.735 38.9377 210.619 38.8185 210.482 38.7262C210.346 38.6339 210.192 38.5705 210.03 38.5397C209.868 38.5089 209.702 38.5115 209.541 38.5472C209.216 38.5472 208.891 38.5472 208.566 38.6C208.407 38.6 208.258 38.6 208.109 38.6C207.916 38.5906 207.725 38.645 207.567 38.7548C207.408 38.8646 207.289 39.0238 207.23 39.2077C207.116 39.6393 206.984 40.0885 207.388 40.4848C207.5 40.5272 207.62 40.5481 207.74 40.5464C208.054 40.5277 208.363 40.6276 208.607 40.8266C208.851 41.0255 209.012 41.309 209.058 41.6209C209.119 41.8927 209.267 42.1371 209.48 42.3167C209.658 42.4893 209.798 42.6978 209.891 42.9285C209.983 43.1592 210.026 43.407 210.016 43.6554C210.016 44.0429 210.183 44.2278 210.552 44.2719C211.229 44.2841 211.888 44.4921 212.45 44.8708C212.635 45.0117 212.889 44.8708 213.091 44.9765C213.294 45.0821 213.258 45.4432 213.531 45.5225C213.875 45.6759 214.239 45.7826 214.612 45.8396C214.924 45.8996 215.213 46.0474 215.445 46.2657C215.677 46.484 215.842 46.7638 215.921 47.0726C216.077 47.4828 216.334 47.8465 216.668 48.1294C216.993 48.4289 217.442 48.6843 217.354 49.2656C217.266 49.8468 217.679 50.2784 218.232 50.5426C218.437 50.6661 218.626 50.814 218.795 50.983C218.979 50.988 219.158 51.0511 219.304 51.1634C219.451 51.2756 219.559 51.4313 219.612 51.6083C219.654 51.7416 219.725 51.8642 219.819 51.9676C219.913 52.071 220.028 52.1527 220.157 52.2072C220.318 52.2779 220.469 52.3697 220.605 52.4802C220.72 52.5616 220.813 52.6693 220.877 52.7941C220.941 52.919 220.975 53.0575 220.975 53.198C220.975 53.3385 220.941 53.477 220.877 53.6019C220.813 53.7267 220.72 53.8344 220.605 53.9158C220.368 54.1272 220.131 54.3385 219.885 54.5323C219.372 54.9575 218.91 55.439 218.505 55.9679C218.174 56.4108 217.698 56.7227 217.16 56.8486C216.976 56.8926 216.791 56.9807 216.615 56.8486C216.062 56.8486 215.86 57.3418 215.482 57.5972C215.214 57.6593 214.975 57.8116 214.805 58.0288C214.39 58.4451 213.876 58.7483 213.311 58.9095C213.065 58.9976 212.81 59.0504 212.722 59.3498C212.722 59.4379 212.626 59.5436 212.555 59.5348C212.142 59.4819 211.835 59.8078 211.448 59.8342L210.728 60.1337C210.67 60.2204 210.589 60.2889 210.494 60.331C210.399 60.3731 210.294 60.3872 210.191 60.3715C209.973 60.3288 209.746 60.3581 209.545 60.4548C209.344 60.5516 209.179 60.7108 209.075 60.9087C208.926 61.0496 208.785 61.1906 208.645 61.3403C208.586 61.3867 208.517 61.4187 208.444 61.434C208.371 61.4493 208.295 61.4474 208.223 61.4284C208.091 61.9304 207.871 61.9568 207.52 61.6045C207.297 61.4137 207.062 61.2372 206.817 61.0761C206.729 61.0307 206.652 60.9666 206.592 60.8883C206.532 60.8101 206.489 60.7195 206.467 60.623C206.445 60.5265 206.445 60.4264 206.466 60.3297C206.487 60.233 206.529 60.142 206.588 60.0632C206.496 59.9477 206.431 59.8132 206.397 59.6693C206.363 59.5255 206.361 59.3759 206.391 59.2312C206.421 59.0865 206.483 58.9502 206.572 58.8322C206.66 58.7142 206.774 58.6173 206.905 58.5484C207.098 58.3458 207.371 58.2137 207.397 57.8878C207.33 57.3777 207.408 56.8589 207.623 56.3915C207.838 55.924 208.18 55.5268 208.61 55.2457C208.777 55.1452 208.899 54.9846 208.952 54.7965C209.001 54.5387 209.106 54.295 209.26 54.0831C209.4 53.8877 209.507 53.6704 209.576 53.4402C209.433 52.7399 209.043 52.1147 208.478 51.6788C208.293 51.5505 208.158 51.3616 208.097 51.1445C208.036 50.9275 208.053 50.6959 208.144 50.4898C208.155 50.4649 208.161 50.4378 208.161 50.4105C208.161 50.3832 208.155 50.3562 208.144 50.3313C207.74 49.4065 208.32 48.5698 208.487 47.7683C208.522 47.5773 208.603 47.3976 208.722 47.2444C208.842 47.0912 208.996 46.9688 209.172 46.8876C209.406 46.7358 209.606 46.5381 209.761 46.3064C209.805 45.9365 209.857 45.5577 209.462 45.3376C209.321 45.2407 209.225 45.0998 209.084 45.0117C208.41 44.4578 207.864 43.7636 207.485 42.9772C207.349 42.7006 207.178 42.443 206.975 42.211L206.272 41.8939C205.56 41.4183 204.69 41.0925 204.602 40.0268C204.379 39.1243 204.085 38.2409 203.723 37.3846C203.689 37.1337 203.633 36.8863 203.557 36.6448C203.557 36.5832 203.513 36.5215 203.486 36.4687C203.46 36.4158 203.425 36.3454 203.398 36.3718C203.372 36.3982 203.398 36.4687 203.398 36.5303C203.501 36.7468 203.541 36.988 203.513 37.2261C203.541 37.5609 203.606 37.8917 203.706 38.2125C203.706 38.4063 203.759 38.6353 203.565 38.7409C203.372 38.8466 203.205 38.6793 203.091 38.5296C202.859 38.2991 202.676 38.0245 202.553 37.7219C202.429 37.4194 202.367 37.0951 202.37 36.7681C202.393 36.4383 202.323 36.1087 202.168 35.817C201.86 35.4689 201.702 35.013 201.729 34.5487C201.729 34.4342 201.729 34.2845 201.641 34.1964C201.043 33.5007 201.395 32.9106 201.816 32.3205C201.88 32.2142 201.933 32.1021 201.975 31.9858" fill="#00609C"/>
<path d="M232.873 59.3146C232.941 59.1652 232.976 59.003 232.976 58.839C232.976 58.675 232.941 58.5129 232.873 58.3634C232.504 58.0069 232.276 57.5281 232.232 57.0159C232.187 56.8246 232.195 56.6249 232.254 56.4375C232.313 56.2501 232.42 56.0819 232.566 55.9502C232.706 55.8269 232.829 55.686 232.961 55.5451C233.339 55.14 233.33 55.0607 232.917 54.7084C232.812 54.6204 232.68 54.5499 232.662 54.3914C232.197 54.2681 232.091 53.6516 231.599 53.5635C231.467 53.5635 231.318 53.5635 231.204 53.4754C231.024 53.657 230.789 53.7738 230.536 53.8072C230.284 53.8407 230.027 53.789 229.806 53.6604C229.34 53.4578 228.778 53.4754 228.532 52.9029C228.043 52.3827 227.682 51.7555 227.477 51.071C227.266 50.6628 227.156 50.2097 227.156 49.75C227.156 49.2902 227.266 48.8371 227.477 48.4289C227.609 48.1911 227.477 47.8476 227.68 47.6274C227.882 47.4072 228.022 47.2663 228.295 47.3104C228.571 47.1516 228.816 46.9425 229.015 46.6939C229.015 46.1654 229.367 46.0333 229.762 46.0157C230.136 45.9947 230.487 45.827 230.738 45.5489C230.977 45.2867 231.28 45.0918 231.618 44.9837C231.956 44.8755 232.316 44.8578 232.662 44.9324C233.488 45.135 234.35 44.9324 235.167 45.1438C235.425 45.192 235.691 45.192 235.949 45.1438C236.687 45.1438 236.898 45.2847 237.012 46.0245C237.17 46.7414 237.594 47.3712 238.199 47.786C238.462 47.9973 238.796 48.1294 239.078 48.332C239.244 48.4202 239.428 48.4714 239.616 48.482C239.804 48.4927 239.992 48.4625 240.167 48.3937C240.397 48.3368 240.635 48.3189 240.87 48.3408C241.083 48.3698 241.284 48.4531 241.455 48.5827C241.626 48.7123 241.76 48.8837 241.846 49.0806C242.038 49.5041 242.132 49.9657 242.122 50.4308C242.111 50.8959 241.996 51.3526 241.784 51.7668C239.905 56.6175 236.405 60.6643 231.88 63.2162C231.406 63.4892 231.379 63.2162 231.379 62.8815C231.195 62.6173 231.327 62.3619 231.423 62.1241C231.626 61.6729 231.765 61.1957 231.836 60.7061C231.966 60.1014 232.329 59.5727 232.847 59.2353" fill="#00609C"/>
<path d="M220.456 22.1217C220.175 21.5669 220.175 21.5669 220.781 21.5581C225.261 21.4839 229.657 22.7804 233.383 25.2747C234.033 25.7063 234.631 26.2171 235.272 26.6751C235.571 26.8864 235.598 27.089 235.36 27.3532C234.991 27.7584 234.78 27.7848 234.332 27.4501C234.06 27.4501 234.104 27.6703 234.112 27.8376C234.155 28.0615 234.124 28.2932 234.024 28.4982C234.024 28.8857 233.752 28.9737 233.515 29.0706C233.379 29.1023 233.26 29.1844 233.181 29.3003C233.103 29.4163 233.072 29.5576 233.093 29.6959C233.093 30.0306 232.944 30.2508 232.601 30.2244C232.258 30.1979 232.188 30.3213 232.144 30.6383C232.074 31.1315 231.766 31.2108 231.335 30.8937H230.606C230.164 31.1329 229.667 31.2513 229.165 31.2372C228.986 31.3388 228.786 31.3987 228.581 31.4124C228.375 31.4262 228.169 31.3934 227.978 31.3165C227.795 31.2203 227.583 31.1922 227.381 31.2372C226.956 31.5053 226.584 31.8485 226.282 32.25C226.106 32.4878 225.896 32.752 225.535 32.6992H224.815C224.313 32.5677 223.88 32.2495 223.604 31.8094C223.328 31.3692 223.23 30.8402 223.33 30.3301C223.379 30.1604 223.411 29.9864 223.426 29.8104C223.426 29.5726 223.347 29.3436 223.356 29.097C223.356 28.5862 223.743 28.5598 224.138 28.4982C224.024 28.2163 223.769 28.0226 223.901 27.6967C223.83 27.7584 223.901 27.6967 223.857 27.6967C223.558 28.1459 223.417 27.8464 223.303 27.5558C223.276 27.4438 223.278 27.3269 223.309 27.2159C223.34 27.105 223.398 27.0037 223.479 26.9217C223.686 26.6306 223.78 26.2734 223.743 25.9176C223.627 25.5506 223.533 25.1771 223.461 24.7991C223.202 24.474 222.844 24.2422 222.442 24.1386C221.995 24.0253 221.578 23.8149 221.22 23.5221C221.107 23.3373 221.052 23.1224 221.062 22.9056C221.074 22.846 221.073 22.7847 221.061 22.7253C221.048 22.6659 221.024 22.6096 220.99 22.5596C220.955 22.5096 220.912 22.4669 220.861 22.4341C220.81 22.4013 220.753 22.3789 220.693 22.3683C220.588 22.3683 220.465 22.3067 220.456 22.1482" fill="#00609C"/>
<path d="M238.278 39.5336C238.473 39.3447 238.722 39.2215 238.99 39.1813C239.368 39.102 239.447 39.4455 239.587 39.6569C239.765 40.0009 240.057 40.2719 240.413 40.4231C240.655 40.5211 240.919 40.5507 241.176 40.5088C241.433 40.4669 241.674 40.355 241.872 40.1853C242.048 40.0268 242.215 39.8154 242.487 39.8418C242.76 39.8683 242.979 39.9563 243.032 40.3439C243.223 41.6917 243.317 43.0515 243.313 44.4128C243.313 44.7651 243.313 45.0557 242.9 45.2319C242.487 45.408 242.83 45.8748 242.698 46.183C242.617 46.2509 242.514 46.2883 242.408 46.2887C242.136 46.2887 241.872 46.1214 241.609 46.2887C241.41 46.4296 241.229 46.5953 241.072 46.7819C240.974 46.8907 240.845 46.9679 240.703 47.0039C240.561 47.0399 240.411 47.0332 240.273 46.9845C240.143 46.9242 240.036 46.8245 239.967 46.6995C239.897 46.5745 239.869 46.4308 239.886 46.2887C239.895 46.1832 239.895 46.0772 239.886 45.9717C239.886 45.7691 239.886 45.4961 239.693 45.408C239.499 45.3199 239.455 45.6018 239.315 45.6986C239.132 45.8268 238.931 45.9249 238.717 45.9893C238.216 46.1038 238.076 45.7955 238.041 45.364C238.027 45.1881 238.027 45.0114 238.041 44.8355C238.054 44.6673 238.029 44.4983 237.967 44.3414C237.905 44.1846 237.807 44.0441 237.683 43.9309C237.558 43.8177 237.409 43.7348 237.247 43.6885C237.085 43.6423 236.914 43.6339 236.749 43.6642C236.6 43.7063 236.446 43.727 236.292 43.7258C235.852 43.6378 235.413 43.5585 235.22 44.131C235.021 44.3582 234.779 44.5424 234.507 44.6724C234.235 44.8024 233.939 44.8754 233.638 44.8869C233.337 44.8985 233.037 44.8483 232.755 44.7395C232.474 44.6307 232.218 44.4656 232.003 44.2543L231.625 43.8932C231.531 43.8229 231.465 43.7219 231.438 43.6076C231.41 43.4934 231.424 43.3731 231.476 43.2678C231.62 42.7896 231.932 42.3798 232.355 42.1141C232.398 42.052 232.454 42.0004 232.519 41.9631C232.585 41.9258 232.658 41.9038 232.733 41.8987C232.808 41.8936 232.884 41.9056 232.954 41.9337C233.023 41.9619 233.086 42.0055 233.137 42.0613C233.203 42.1176 233.28 42.1592 233.364 42.1835C233.447 42.2078 233.534 42.2142 233.62 42.2022C234.271 41.8323 234.279 41.8323 234.156 41.066C234.139 41.0028 234.136 40.9368 234.146 40.8722C234.157 40.8076 234.18 40.7459 234.216 40.6911C234.252 40.6363 234.298 40.5896 234.353 40.5541C234.408 40.5185 234.47 40.4949 234.534 40.4848C235.035 40.3164 235.572 40.283 236.09 40.3879C236.32 40.3963 236.544 40.3141 236.714 40.1589C237.223 39.921 237.745 39.7122 238.278 39.5336Z" fill="#00609C"/>
<path d="M231.502 54.3297C230.488 56.0202 229.31 57.6072 227.987 59.068C227.916 59.13 227.831 59.1749 227.74 59.1993C227.648 59.2237 227.553 59.227 227.46 59.2089C225.547 59.2169 223.639 59.0281 221.765 58.6453C222.257 57.8262 222.758 57.0423 223.206 56.2321C223.778 55.2192 224.323 54.18 224.859 53.1495C224.973 52.9382 225.061 52.8149 225.324 52.9029C227.276 53.4696 229.26 53.9195 231.265 54.2504C231.349 54.2712 231.431 54.2976 231.511 54.3297" fill="white"/>
<path d="M227.02 45.9541L226.722 45.8396L221.871 43.8844C221.563 43.7611 221.484 43.6378 221.607 43.3031C222.249 41.6121 222.873 39.9123 223.488 38.2213C223.602 37.9131 223.716 37.8602 224.015 37.9923C225.562 38.6529 227.091 39.3398 228.594 40.0884C228.927 40.2558 228.98 40.4319 228.875 40.793C228.429 42.3901 227.931 43.9607 227.381 45.5049C227.31 45.6898 227.31 45.9541 227.02 45.9541Z" fill="white"/>
<path d="M226.871 46.8876C226.818 47.0021 226.757 47.1695 226.695 47.3368C226.142 48.7724 225.535 50.1815 224.894 51.5819C224.744 51.9165 224.595 52.0222 224.235 51.8989C222.635 51.3617 221.036 50.8156 219.454 50.2256C219.182 50.1199 219.129 49.9966 219.234 49.7235C219.867 48.0326 220.494 46.3386 221.115 44.6418C221.194 44.4216 221.291 44.36 221.528 44.4568L226.616 46.5177C226.748 46.5706 226.933 46.6058 226.871 46.8876Z" fill="white"/>
<path d="M217.134 36.2485C217.204 36.4951 217.371 36.7505 217.591 36.6272C218.109 36.3102 218.725 36.5127 219.234 36.2133L220.262 36.5391C220.359 37.0411 220.552 37.2966 221.141 37.0676C221.405 36.9619 221.695 37.1821 221.976 37.1997C223.11 37.5167 223.11 37.5167 222.688 38.6353C222.134 40.1061 221.581 41.5769 221.053 43.0389C220.93 43.3823 220.807 43.4176 220.5 43.2943C218.842 42.6073 217.178 41.9321 215.508 41.2686C215.192 41.1541 215.122 41.0396 215.253 40.705C215.869 39.1989 216.457 37.6841 217.169 36.2221" fill="white"/>
<path d="M225.535 32.6816C225.878 32.4789 226.177 32.2093 226.414 31.8889C226.669 31.5719 226.915 31.2108 227.39 31.2196C228.312 31.6952 229.226 32.1796 230.149 32.6463C230.421 32.7873 230.483 32.937 230.439 33.2628C230.177 35.2677 229.798 37.2557 229.305 39.2165C229.209 39.6041 229.103 39.604 228.796 39.4455C227.337 38.6924 225.841 38.0134 224.314 37.4111C223.901 37.2437 223.927 37.0588 224.059 36.7153C224.569 35.3766 225.052 34.0291 225.544 32.6816" fill="white"/>
<path d="M232.873 59.3146C231.994 60.0896 231.994 61.2698 231.573 62.2386C231.456 62.4608 231.398 62.7097 231.406 62.9608C230.31 63.643 229.128 64.1733 227.89 64.5373C225.287 65.4023 222.544 65.7669 219.806 65.6118C219.445 65.6118 219.085 65.5501 218.725 65.5149C218.663 65.3035 218.883 65.4092 218.927 65.3211C221.68 64.7109 224.233 63.4076 226.344 61.534C226.433 61.4501 226.527 61.3707 226.625 61.2962C227.231 60.8647 227.6 60.0632 228.33 59.8871C229.059 59.7109 229.797 59.7726 230.527 59.6581L232.61 59.297C232.706 59.297 232.803 59.2001 232.891 59.297" fill="white"/>
<path d="M236.09 40.3879C235.658 40.4926 235.216 40.5458 234.771 40.5464C234.253 40.6521 234.227 40.7314 234.411 41.2422C234.465 41.3462 234.486 41.464 234.472 41.5803C234.458 41.6966 234.409 41.8059 234.332 41.8939C234.139 42.0524 233.981 42.4135 233.62 42.2022C232.518 41.4486 231.367 40.769 230.175 40.1677C229.885 40.018 229.78 39.8771 229.877 39.5248C230.397 37.5692 230.782 35.5799 231.028 33.5711C231.028 33.2364 231.186 33.254 231.423 33.4038C233.031 34.4093 234.541 35.5652 235.931 36.8562C236.018 36.9291 236.087 37.021 236.133 37.1248C236.179 37.2287 236.2 37.3417 236.195 37.4551C236.222 38.4339 236.186 39.4135 236.09 40.3879Z" fill="white"/>
<path d="M242.487 39.8418C242.32 39.9916 242.145 40.1325 241.969 40.2734C241.801 40.4289 241.601 40.5448 241.383 40.6127C241.166 40.6806 240.935 40.6988 240.709 40.6658C240.483 40.6329 240.268 40.5497 240.078 40.4223C239.889 40.295 239.73 40.1268 239.614 39.9299C239.429 39.6657 239.315 39.331 238.99 39.1813L237.021 37.0059C236.889 36.8611 236.815 36.6734 236.81 36.4775C236.712 33.3494 235.868 30.2903 234.35 27.5558C234.341 27.5211 234.341 27.4848 234.35 27.4501C234.514 27.5281 234.696 27.5603 234.877 27.5432C235.058 27.5262 235.231 27.4605 235.378 27.3532C236.5 28.3771 237.535 29.4937 238.471 30.6911C239.64 32.2136 240.587 33.8951 241.283 35.6848C240.835 35.8246 240.439 36.098 240.15 36.4687C240.09 36.5324 240.015 36.5803 239.932 36.6079C239.85 36.6356 239.761 36.6422 239.675 36.6272C239.528 36.6146 239.38 36.6395 239.245 36.6996C239.109 36.7596 238.991 36.8529 238.902 36.9707C238.797 37.0531 238.718 37.1635 238.673 37.2892C238.629 37.4149 238.621 37.5507 238.65 37.6808C238.68 37.8108 238.746 37.9298 238.84 38.024C238.934 38.1181 239.053 38.1835 239.183 38.2125C239.283 38.2482 239.386 38.2747 239.491 38.2918C239.895 38.3622 240.053 38.6088 240.071 39.0316C240.071 39.745 240.071 39.7185 240.782 39.56C241.054 39.5286 241.308 39.4106 241.507 39.2235C241.707 39.0364 241.841 38.79 241.89 38.5208C241.893 38.459 241.914 38.3996 241.952 38.3507C241.99 38.3018 242.042 38.2659 242.101 38.2477C242.301 38.7602 242.437 39.2957 242.505 39.8418" fill="white"/>
<path d="M217.371 49.2744C217.182 48.781 216.84 48.3612 216.396 48.0766C216.172 47.9137 216.009 47.6816 215.93 47.4161C215.666 46.5882 215.245 45.9453 214.278 45.9541C214.129 45.9597 213.981 45.9229 213.852 45.8481C213.723 45.7733 213.618 45.6635 213.548 45.5313C213.777 44.8972 214.014 44.2543 214.243 43.6113C214.295 43.6113 214.322 43.673 214.357 43.7082C214.392 43.7434 214.498 43.9548 214.629 43.7963C214.761 43.6378 214.629 43.5849 214.515 43.5145C214.459 43.4783 214.406 43.437 214.357 43.3912C214.433 42.8893 214.578 42.4003 214.788 41.938C214.858 41.709 215.016 41.8323 215.13 41.8851L220.315 43.9636C220.526 44.0517 220.614 44.1486 220.517 44.404C219.876 46.1038 219.243 47.8212 218.619 49.5298C218.549 49.7236 218.47 49.838 218.25 49.7236C217.937 49.6166 217.641 49.4654 217.371 49.2744Z" fill="white"/>
<path d="M227.02 59.9399C223.848 62.9696 220.315 65.101 215.798 64.7927C218.03 63.5685 219.577 61.6221 221.071 59.5964C221.131 59.4781 221.231 59.3849 221.354 59.3334C221.476 59.2818 221.612 59.2751 221.739 59.3146C223.478 59.6552 225.241 59.8643 227.012 59.9399" fill="white"/>
<path d="M216.642 56.875C217.004 56.8448 217.355 56.7372 217.672 56.5595C217.989 56.3817 218.264 56.1379 218.478 55.8446C219.06 55.1035 219.736 54.4431 220.491 53.8806C221.062 53.4314 221.053 52.9998 220.491 52.5683C220.314 52.4322 220.123 52.3169 219.92 52.2248C219.811 52.1957 219.716 52.1316 219.647 52.0425C219.579 51.9533 219.542 51.844 219.542 51.7316C219.542 51.2824 219.05 51.2472 218.812 50.9918C218.865 50.7452 218.997 50.7452 219.199 50.8244C220.825 51.441 222.459 52.031 224.12 52.5859C224.34 52.6475 224.384 52.7268 224.279 52.947C223.365 54.7951 222.341 56.5863 221.212 58.3106C221.172 58.3879 221.105 58.4478 221.024 58.4787C220.943 58.5096 220.853 58.5093 220.772 58.4779C219.437 58.1526 218.119 57.7557 216.826 57.2889C216.651 57.2273 216.492 57.148 216.668 56.919" fill="white"/>
<path d="M223.558 29.8104C223.444 30.0429 223.378 30.2963 223.365 30.555C223.352 30.8137 223.391 31.0724 223.481 31.3154C223.57 31.5584 223.708 31.7806 223.886 31.9685C224.064 32.1565 224.278 32.3062 224.516 32.4086C224.628 32.4883 224.728 32.5831 224.815 32.6904C224.34 34.0203 223.848 35.3326 223.382 36.6713C223.303 36.8826 223.224 36.9531 223.013 36.865C222.468 36.6448 221.923 36.4158 221.37 36.2485C221.159 36.178 221.37 36.0371 221.282 36.0107C221.062 35.5263 220.799 35.0683 221.282 34.5487C221.322 34.5002 221.35 34.4425 221.363 34.3806C221.376 34.3187 221.374 34.2546 221.357 34.1938C221.34 34.133 221.308 34.0774 221.264 34.0318C221.22 33.9862 221.166 33.952 221.106 33.9322C220.561 33.6768 220.561 33.6768 220.983 33.1572C220.809 33.179 220.632 33.1479 220.475 33.0678C220.318 32.9878 220.189 32.8624 220.104 32.708C219.954 32.404 219.929 32.0529 220.034 31.7304C220.056 31.6155 220.051 31.4972 220.021 31.3843C219.99 31.2715 219.935 31.167 219.858 31.0787C219.814 30.6383 220.131 30.3741 220.333 30.0658C221.08 28.9385 220.763 28.8857 222.301 29.3172C222.732 29.4317 223.233 29.4229 223.576 29.8104" fill="white"/>
<path d="M214.418 64.4316C213.979 64.4316 213.856 64.3611 213.997 63.9736C214.717 62.0713 215.429 60.1689 216.115 58.2489C216.255 57.8614 216.405 57.7821 216.791 57.9231C217.938 58.3598 219.112 58.7188 220.306 58.9975C220.552 59.0504 220.64 59.112 220.465 59.3674C219.294 61.1201 217.803 62.6351 216.071 63.8327C215.571 64.1469 215.011 64.351 214.427 64.4316" fill="white"/>
<path d="M213.109 44.9853C212.965 45.0868 212.787 45.1279 212.613 45.0999C212.439 45.072 212.283 44.9771 212.178 44.8355C211.861 44.5009 211.299 44.5361 210.859 44.4656C210.024 44.3423 210.033 44.3511 209.884 43.5145C209.787 43.0125 209.734 42.4664 209.146 42.2727C208.961 42.2198 209.005 42.0437 208.996 41.9116C208.973 41.6102 208.856 41.3238 208.662 41.0925C208.451 40.8018 208.214 40.5552 207.784 40.705C207.704 40.7427 207.614 40.7545 207.528 40.7387C207.441 40.7229 207.361 40.6803 207.3 40.6169C207.278 40.0543 207.442 39.5001 207.766 39.0404C207.811 38.9736 207.879 38.9264 207.958 38.9084C208.036 38.8904 208.118 38.903 208.188 38.9435C209.163 39.3222 210.156 39.6833 211.097 40.1413C211.158 40.1413 211.202 40.2382 211.255 40.2822L211.457 40.4055C212.248 40.7226 213.039 41.0484 213.838 41.3567C214.12 41.4624 214.216 41.6033 214.093 41.9116C213.97 42.2198 213.847 42.6073 213.724 42.9508C213.696 42.9616 213.665 42.9616 213.636 42.9508C213.496 42.9508 213.311 42.7923 213.232 43.0037C213.153 43.215 213.408 43.1622 213.469 43.2767C213.489 43.3031 213.504 43.333 213.513 43.3647L213.091 44.95" fill="white"/>
<path d="M231.335 30.8937C231.951 31.0787 232.021 31.017 231.994 30.3741C231.994 30.0482 232.223 29.9866 232.443 30.0658C232.961 30.2244 233.058 29.9425 232.961 29.555C232.865 29.1675 232.961 29.053 233.321 29.0002C233.466 28.9698 233.602 28.9094 233.722 28.8229C233.841 28.7365 233.941 28.6258 234.016 28.4982C234.227 28.5774 234.262 28.7976 234.341 28.9649C235.396 31.2039 236.007 33.6265 236.142 36.0988C235.501 35.5791 234.921 35.086 234.323 34.6192C233.466 33.9342 232.561 33.3103 231.617 32.752C231.467 32.6846 231.345 32.5667 231.273 32.4186C231.2 32.2706 231.182 32.1019 231.221 31.9418C231.22 31.5892 231.258 31.2376 231.335 30.8937Z" fill="white"/>
<path d="M232.355 42.1141C232.05 42.4738 231.801 42.8777 231.617 43.3119C231.617 43.4352 231.467 43.6025 231.564 43.6642C231.986 43.9372 232.205 44.5449 232.698 44.633C233.124 44.7777 233.583 44.7991 234.021 44.6948C234.46 44.5904 234.86 44.3645 235.176 44.0429C235.492 43.9812 235.58 44.1838 235.571 44.4392C235.588 44.6004 235.568 44.7632 235.513 44.9156C235.458 45.068 235.37 45.2062 235.255 45.3199C234.315 45.135 233.348 45.2583 232.39 45.0998C232.057 45.0319 231.71 45.0742 231.403 45.2203C231.095 45.3664 230.844 45.6084 230.685 45.91C230.647 46.0173 230.569 46.1056 230.468 46.1565C230.366 46.2074 230.249 46.2169 230.14 46.183C229.925 46.1148 229.691 46.1326 229.488 46.2327C229.285 46.3328 229.128 46.5074 229.05 46.7203C228.692 46.6597 228.345 46.5439 228.022 46.3768C227.829 46.324 227.829 46.1919 227.899 46.0069C228.506 44.3511 229.042 42.6602 229.507 40.9516C229.595 40.5993 229.745 40.705 229.938 40.8106L232.355 42.1317" fill="white"/>
<path d="M211.474 59.8607C211.791 59.6933 212.011 59.2706 212.459 59.4996C212.564 59.5524 212.626 59.4555 212.635 59.3675C212.635 58.9183 212.986 58.9095 213.294 58.795C213.954 58.6557 214.536 58.268 214.919 57.7117C215.06 57.4651 215.288 57.5003 215.508 57.6236C215.534 57.6803 215.548 57.7419 215.548 57.8042C215.548 57.8665 215.534 57.9281 215.508 57.9847C214.77 59.9576 214.041 61.9304 213.302 63.912C213.263 63.9929 213.216 64.0696 213.162 64.141C211.861 63.0049 211.668 61.4372 211.483 59.8607" fill="white"/>
<path d="M242.083 38.2477C242.007 38.3662 241.964 38.5032 241.96 38.6441C241.945 38.864 241.86 39.0733 241.718 39.2414C241.576 39.4094 241.383 39.5273 241.169 39.5776H241.02C240.018 39.8683 240.009 39.8683 239.939 38.829C239.939 38.3798 239.578 38.3975 239.315 38.3358C238.717 38.2037 238.383 37.8338 238.436 37.3318C238.511 37.0804 238.664 36.8595 238.872 36.7011C239.081 36.5427 239.334 36.4551 239.596 36.4511C239.752 36.467 239.909 36.4308 240.043 36.3479C240.176 36.2651 240.279 36.1403 240.334 35.9931C240.51 35.6496 240.703 35.5351 241.046 35.7024C241.09 35.7024 241.178 35.7025 241.239 35.6408L241.6 35.3678C241.918 36.0899 242.182 36.8347 242.391 37.596C242.487 37.9307 242.101 37.9571 242.057 38.2037" fill="#00609C"/>
<path d="M232.689 54.3914C232.803 54.4618 232.926 54.5235 233.04 54.6027C233.576 54.9814 233.611 55.1488 233.128 55.5979C232.249 56.4346 232.109 56.6372 232.777 58.0728L232.9 58.3634C232.9 58.6276 232.618 58.61 232.451 58.6452C231.267 58.9311 230.057 59.0992 228.84 59.1473C229.376 58.4691 229.903 57.8526 230.377 57.192C230.852 56.5315 231.485 55.6068 231.986 54.7877C232.046 54.6556 232.147 54.5461 232.273 54.4749C232.399 54.4037 232.545 54.3745 232.689 54.3914Z" fill="white"/>
<path d="M220.456 22.1217C220.544 22.2626 220.702 22.2098 220.825 22.2362C221.185 22.2979 221.317 22.4828 221.168 22.8439C221.115 23.0465 220.939 23.0905 220.79 23.161C219.483 23.7094 218.242 24.4037 217.09 25.2307C216.905 25.3628 216.721 25.5741 216.44 25.4244C216.281 25.2105 216.063 25.047 215.814 24.9533C215.565 24.8596 215.294 24.8397 215.034 24.896C214.833 24.9271 214.629 24.8914 214.451 24.7943C214.273 24.6972 214.132 24.5441 214.049 24.3587C213.903 24.0608 213.697 23.7968 213.443 23.5837C213.729 23.3268 214.096 23.18 214.48 23.1698C214.514 23.2111 214.537 23.2595 214.549 23.3114C214.562 23.3633 214.562 23.4172 214.55 23.4692C214.55 23.9977 214.55 24.0769 215.034 23.9977C215.198 23.9653 215.367 23.9804 215.523 24.0412C215.679 24.1021 215.814 24.2061 215.912 24.3411C215.956 24.3948 216.006 24.4422 216.062 24.482C216.202 24.5789 216.361 24.7463 216.519 24.5877C216.677 24.4292 216.519 24.2971 216.405 24.165C216.29 24.0329 216.273 23.9977 216.22 23.9096C216.18 23.856 216.154 23.7939 216.142 23.7283C216.13 23.6626 216.134 23.5951 216.153 23.5311C216.171 23.4671 216.205 23.4083 216.25 23.3594C216.295 23.3104 216.351 23.2727 216.413 23.249C216.657 23.1118 216.926 23.0278 217.204 23.0024C217.573 23.0024 217.749 22.8087 217.732 22.4212C218.615 22.2288 219.516 22.1285 220.421 22.1217" fill="white"/>
<path d="M211.87 39.5424C211.993 39.287 212.107 39.0316 212.239 38.785C212.292 38.6793 212.353 38.5384 212.494 38.5648C213.004 38.6441 213.188 38.3182 213.373 37.9043C213.55 37.6034 213.81 37.3603 214.122 37.2041C214.434 37.0479 214.784 36.9852 215.13 37.0235C215.394 37.1022 215.677 37.0866 215.93 36.9795C216.088 37.0852 215.983 37.1909 215.93 37.2966C215.499 38.3798 215.051 39.4455 214.621 40.5288C214.506 40.8371 214.366 40.8899 214.085 40.7578C213.452 40.4848 212.81 40.2382 212.169 39.9828C211.975 39.9123 211.835 39.8066 211.87 39.5688" fill="white"/>
<path d="M228.33 47.328C228.005 47.5922 227.495 47.7331 227.715 48.3496C227.728 48.3835 227.728 48.4214 227.715 48.4553C226.836 49.5826 227.627 50.6307 227.864 51.7052C227.924 51.9488 228.063 52.1656 228.26 52.3217C228.35 52.3911 228.425 52.4787 228.479 52.5788C228.533 52.6789 228.566 52.7893 228.576 52.9029C228.488 53.0439 228.365 53.0086 228.251 52.9822C227.372 52.762 226.555 52.5242 225.702 52.3217C225.36 52.2424 225.377 52.1015 225.509 51.8197C226.177 50.3929 226.801 48.9485 227.363 47.4777C227.609 46.8172 227.785 46.7907 228.347 47.328" fill="white"/>
<path d="M217.767 22.4652C217.79 22.5507 217.822 22.6334 217.863 22.7118C218.022 22.976 218.013 23.0993 217.652 23.1169C217.313 23.1547 216.978 23.2225 216.651 23.3195C216.22 23.4252 216.185 23.6542 216.431 23.9977C216.677 24.3412 217.037 24.5085 216.659 24.8255C216.282 25.1426 216.044 24.7463 215.886 24.5173C215.456 23.9096 214.849 24.2707 214.331 24.121C214.344 23.8223 214.394 23.5265 214.48 23.2402C214.48 22.474 215.025 22.4388 215.526 22.3595C215.886 22.2803 216.264 22.2274 216.624 22.1129C217.125 21.9544 217.503 21.9632 217.732 22.5709" fill="#306F9F"/>
<path d="M209.146 60.9351C209.146 60.9351 209.146 60.9351 209.146 60.8823C209.242 60.3715 209.427 60.0016 210.024 60.2482C210.235 60.3186 210.517 60.1953 210.771 60.1601C210.921 60.4766 210.999 60.8225 211 61.1729C211.141 61.9023 211.353 62.6161 211.633 63.3043C210.662 62.6692 209.811 61.8671 209.119 60.9351" fill="#FDFDFD"/>
<path d="M242.681 46.8876C242.839 46.9405 242.927 46.7907 243.111 46.7643C243.023 47.2487 242.927 47.7243 242.865 48.1911C242.804 48.6579 242.575 48.7107 242.224 48.4729C242.139 48.4207 242.051 48.3737 241.96 48.332C241.591 48.4289 241.442 48.1471 241.239 47.9005C241.222 47.953 241.194 48.0014 241.157 48.0426C241.12 48.0838 241.075 48.117 241.025 48.1401C240.974 48.1633 240.92 48.1758 240.865 48.177C240.809 48.1782 240.755 48.168 240.703 48.1471C240.596 48.1169 240.502 48.0504 240.438 47.9589C240.374 47.8674 240.344 47.7565 240.352 47.645C240.615 46.9757 241.231 46.8876 241.784 46.7643C242.007 46.7511 242.23 46.7511 242.452 46.7643C242.537 46.7754 242.617 46.8123 242.681 46.87" fill="#00609C"/>
<path d="M238.278 39.5336C237.846 39.9193 237.292 40.1406 236.714 40.1589C236.811 39.3698 236.864 38.576 236.872 37.781C237.421 38.2986 237.895 38.8916 238.278 39.5424" fill="#FDFDFD"/>
<path d="M221.941 37.1997C221.941 37.3406 221.809 37.3318 221.704 37.2965C221.519 37.1911 221.307 37.1439 221.096 37.1612C220.884 37.1785 220.682 37.2594 220.517 37.3934C220.333 37.552 220.298 37.3934 220.28 37.2173C220.262 37.0411 220.35 36.7681 220.28 36.5391C220.28 36.4511 220.192 36.3454 220.377 36.3189C220.701 36.2626 221.035 36.3193 221.323 36.4795C221.611 36.6397 221.835 36.8939 221.959 37.1997" fill="#266A9A"/>
<path d="M229.165 31.2196C229.613 30.9964 230.106 30.8789 230.606 30.8761C230.606 32.1355 230.606 32.1443 229.56 31.5631C229.402 31.4838 229.165 31.4838 229.165 31.2196Z" fill="#FDFDFD"/>
<path d="M240.73 48.059C241.143 48.1559 241.125 47.8388 241.169 47.5394C241.221 47.7291 241.321 47.9021 241.459 48.0412C241.598 48.1802 241.771 48.2805 241.96 48.332C241.991 48.6134 241.964 48.8982 241.881 49.1687C241.629 48.8755 241.3 48.6588 240.932 48.5434C240.818 48.4025 240.633 48.2968 240.73 48.059Z" fill="#F5F5F7"/>
<path d="M213.54 43.4L212.995 43.1446C213.162 42.757 213.408 42.6514 213.751 42.9508C213.909 43.215 213.926 43.4088 213.54 43.4Z" fill="#266A9A"/>
<path d="M214.357 43.3912C214.559 43.3912 214.849 43.3912 214.831 43.6994C214.831 43.8579 214.761 44.1046 214.568 44.0869C214.375 44.0693 214.269 43.8403 214.243 43.6113L214.357 43.3912Z" fill="#266A9A"/>
<path d="M218.101 35.1476C217.995 35.0155 217.89 34.8922 217.723 34.672C218.25 34.6192 218.399 34.9979 218.602 35.2533C218.408 35.3061 218.259 35.174 218.083 35.1476" fill="#E4E9EE"/>
<path d="M242.681 46.8876H242.496C242.435 46.8495 242.383 46.7984 242.344 46.738C242.305 46.6776 242.279 46.6093 242.269 46.538C242.259 46.4666 242.265 46.3939 242.286 46.325C242.307 46.256 242.343 46.1926 242.391 46.139H242.698V46.8436" fill="#F2F2F2"/>
<path d="M208.267 61.4548C208.381 61.3051 208.539 61.3755 208.689 61.3667C208.689 61.5869 208.935 61.6838 209.023 61.948C208.728 61.862 208.465 61.6904 208.267 61.4548Z" fill="#EDEDF2"/>
<path d="M212.924 23.707C212.74 23.9536 212.555 24.2178 212.195 24.0241C212.288 23.9233 212.401 23.8431 212.526 23.7885C212.652 23.7339 212.788 23.7061 212.924 23.707Z" fill="#D9E0EB"/>
<path d="M231.23 53.4754C231.379 53.4226 231.529 53.3873 231.625 53.5635C231.458 53.6868 231.309 53.7308 231.23 53.4754Z" fill="#B0BAC9"/>
<path d="M218.918 65.3211L218.716 65.5149H218.32C218.489 65.3788 218.702 65.3098 218.918 65.3211Z" fill="#DBDBDB"/>
<path d="M206.931 58.5748C206.742 58.7724 206.612 59.019 206.557 59.2868C206.501 59.5546 206.521 59.8328 206.615 60.0897C205.733 59.4319 204.949 58.6521 204.286 57.7734C201.81 54.8155 200.166 51.2493 199.523 47.4425C199.17 45.1603 199.17 42.8374 199.523 40.5552C199.725 40.793 199.672 41.0925 199.725 41.3655C200.321 44.0679 201.557 46.587 203.328 48.7107C203.786 49.333 204.307 49.9057 204.884 50.4193C205.054 50.5976 205.182 50.8122 205.258 51.0471C205.334 51.2819 205.356 51.531 205.323 51.7756C205.485 54.1148 206.029 56.4115 206.931 58.5748Z" fill="white"/>
<path d="M205.235 49.7676C201.368 46.0069 199.567 40.8723 200.323 37.7545C201.483 40.1413 203.398 41.7794 205.402 43.3295C205.551 43.4161 205.667 43.549 205.734 43.7079C205.8 43.8668 205.813 44.0432 205.771 44.2102C205.423 45.9351 205.249 47.6907 205.253 49.4505C205.253 49.5122 205.253 49.5826 205.253 49.7324" fill="white"/>
<path d="M209.805 46.2887C209.817 46.4257 209.781 46.5625 209.705 46.6764C209.628 46.7902 209.514 46.8741 209.383 46.914C209.131 47.0432 208.917 47.2365 208.763 47.4745C208.608 47.7125 208.519 47.987 208.504 48.2704C208.491 48.5498 208.403 48.8206 208.249 49.0542C208.185 49.1519 208.144 49.2629 208.129 49.3788C208.114 49.4947 208.125 49.6126 208.161 49.7235C208.223 50.0758 208.399 50.3753 208.161 50.798C207.924 51.2208 208.39 51.4233 208.636 51.6788C208.936 51.9324 209.196 52.2292 209.409 52.5595C209.565 52.841 209.615 53.169 209.55 53.4842C208.903 53.1679 208.31 52.7518 207.792 52.2512C207.212 51.8021 206.676 51.3 206.131 50.8156C206.048 50.7532 205.98 50.6722 205.932 50.579C205.885 50.4858 205.86 50.3829 205.859 50.2784C205.829 48.2418 206.015 46.2077 206.413 44.2102C207.555 44.9236 208.618 45.7075 209.778 46.324" fill="white"/>
<path d="M203.873 37.3054C204.355 38.3241 204.689 39.4065 204.866 40.52C204.866 40.6609 204.866 40.8194 205.059 40.8723C205.595 41.0484 205.877 41.5416 206.29 41.8763C206.214 42.0734 206.155 42.2768 206.114 42.484C206.052 42.9156 205.929 42.986 205.578 42.7042C204.161 41.6437 202.89 40.3999 201.799 39.0052C201.211 38.3093 200.833 37.4601 200.709 36.5568C200.709 36.178 200.78 36.0812 201.14 36.2397C201.5 36.3982 202.019 36.6008 202.484 36.7681C202.653 37.5342 203.063 38.2257 203.653 38.7409C203.811 38.4063 203.653 38.1332 203.592 37.8602C203.53 37.5872 203.363 37.4551 203.513 37.2173C203.545 37.1976 203.581 37.1848 203.619 37.1799C203.657 37.175 203.695 37.178 203.731 37.1888C203.768 37.1996 203.801 37.2179 203.83 37.2425C203.859 37.2671 203.883 37.2975 203.899 37.3318" fill="white"/>
<path d="M209.286 54.0919C209.198 54.4442 209.102 54.8053 209.005 55.1576C209.005 55.2809 208.952 55.3954 208.777 55.3954C208.32 55.3954 208.126 55.7213 207.951 56.0824C207.715 56.6735 207.542 57.2874 207.432 57.9143C206.819 56.5794 206.407 55.1606 206.21 53.7044C206.062 53.0157 205.988 52.3129 205.991 51.6083C207.034 52.5071 208.135 53.3368 209.286 54.0919Z" fill="white"/>
<path d="M207.019 42.1934C207.318 42.255 207.45 42.44 207.573 42.7394C207.975 43.5805 208.522 44.3437 209.19 44.9941C209.198 45.0071 209.203 45.0224 209.203 45.0381C209.203 45.0538 209.198 45.0691 209.19 45.0821C208.358 44.6162 207.557 44.0985 206.791 43.5321C206.703 43.4792 206.58 43.4088 206.615 43.2943C206.729 42.9068 206.615 42.4136 207.01 42.1494" fill="#FDFDFD"/>
<path d="M201.843 34.5223L202.282 35.7905C201.79 35.9579 201.447 35.5704 201.034 35.4294C200.938 35.4294 201.034 35.2445 201.096 35.1652C201.302 34.9058 201.556 34.6877 201.843 34.5223Z" fill="#FBFBFB"/>
<path d="M209.198 45.1262C209.203 45.0823 209.203 45.038 209.198 44.9941C209.33 45.0733 209.48 45.135 209.515 45.3111C209.451 45.3139 209.388 45.2979 209.333 45.265C209.279 45.2321 209.235 45.1838 209.207 45.1262" fill="#D6DBE3"/>
<path d="M216.44 25.4244C216.537 25.4043 216.632 25.3717 216.721 25.3275C218.094 24.3172 219.588 23.4828 221.168 22.8439C221.212 23.0553 221.264 23.2755 221.308 23.4868C221.352 23.6982 220.93 23.8215 220.719 23.9096C218.71 24.8312 216.873 26.0913 215.288 27.635C216.027 27.5734 216.712 27.8288 217.415 27.7055C217.706 27.7252 217.979 27.8542 218.18 28.0666C218.347 28.2427 218.496 28.4453 218.259 28.6919C217.723 28.8945 217.204 28.6391 216.677 28.6303C216.327 28.5105 215.957 28.4597 215.587 28.4805C215.387 28.5392 215.18 28.5717 214.972 28.5774H214.823C214.724 28.5653 214.627 28.5447 214.533 28.5158C214.331 28.5158 213.97 28.1194 214.014 28.7359C213.753 29.2188 213.407 29.6513 212.995 30.013L212.511 29.2732C212.591 29.0442 212.793 28.9121 212.898 28.6919C212.573 28.5334 212.23 28.7712 211.914 28.6303C211.941 28.3386 212.072 28.0665 212.283 27.864C212.48 27.7578 212.701 27.7062 212.924 27.7143C213.427 27.7135 213.92 27.5733 214.348 27.3092C214.489 27.2563 214.585 27.4149 214.735 27.4149C214.788 27.2387 214.612 27.2299 214.559 27.133C214.665 26.6839 215.051 26.5606 215.385 26.3844C215.53 26.3409 215.676 26.3056 215.825 26.2787C216.475 26.1907 216.554 26.0938 216.44 25.398" fill="#999999"/>
<path d="M214.585 28.4189L214.805 28.5158C214.849 28.5924 214.909 28.6585 214.981 28.7095C214.981 28.6214 214.902 28.5686 214.902 28.4893C215.086 28.366 215.297 28.4453 215.499 28.4277C215.499 28.4277 215.596 28.4277 215.614 28.5246C215.509 29.1736 215.473 29.832 215.508 30.4886C215.561 30.7528 215.508 30.9289 215.209 30.9466C215.138 30.9429 215.067 30.9553 215.002 30.9828C214.936 31.0103 214.878 31.0523 214.83 31.1056C214.783 31.1588 214.748 31.2221 214.729 31.2906C214.709 31.3591 214.705 31.4311 214.717 31.5014C214.717 31.6775 214.656 31.8273 214.454 31.8097C214.252 31.792 214.181 31.7392 214.172 31.5543C214.186 31.2275 214.082 30.9067 213.878 30.651C213.675 30.3953 213.386 30.2219 213.065 30.1627C213.065 30.1627 213.065 30.0658 212.995 30.0218C213.188 29.4846 213.663 29.1411 213.953 28.7359C214.12 28.5422 214.418 28.6126 214.585 28.4189Z" fill="#FDFDFD"/>
<path d="M223.558 29.8104C222.829 29.6167 222.099 29.4405 221.37 29.2291C221.324 29.2091 221.275 29.1984 221.226 29.1978C221.176 29.1971 221.127 29.2066 221.081 29.2255C221.035 29.2444 220.993 29.2724 220.958 29.3078C220.923 29.3433 220.896 29.3854 220.878 29.4317C220.535 29.9866 220.192 30.5326 219.841 31.0787C219.728 31.0162 219.601 30.9835 219.472 30.9835C219.342 30.9835 219.215 31.0162 219.102 31.0787C219.032 30.6559 219.401 30.4357 219.533 30.1099C219.624 29.921 219.733 29.7411 219.858 29.5726C219.966 29.4391 220.055 29.2908 220.122 29.1323C219.964 29.0178 219.753 29.1323 219.612 28.9473C219.554 28.8407 219.523 28.7211 219.523 28.5994C219.523 28.4778 219.554 28.3581 219.612 28.2516C219.797 28.0402 220.052 28.2516 220.254 28.1547C220.674 28.2599 221.104 28.3219 221.537 28.3396L221.669 28.4101C222.035 28.6018 222.429 28.7327 222.837 28.7976C223.077 28.8256 223.303 28.9236 223.488 29.0794C223.555 29.3262 223.587 29.5811 223.584 29.8368" fill="#999C99"/>
<path d="M211.272 40.2822C210.279 39.8947 209.277 39.516 208.293 39.1108C207.977 38.9699 207.836 39.0228 207.74 39.3663C207.643 39.7097 207.458 40.2029 207.318 40.6169C206.808 40.2294 207.019 39.6921 207.098 39.2165C207.132 39.0081 207.239 38.8188 207.4 38.683C207.562 38.5472 207.766 38.474 207.977 38.4767C208.182 38.4592 208.387 38.4592 208.592 38.4767C209.493 38.6558 210.352 39.0055 211.123 39.5072C211.167 39.7626 211.22 40.018 211.264 40.2734" fill="#999C9C"/>
<path d="M219.955 29.5902C219.674 30.0746 219.392 30.5678 219.076 31.0522C218.839 31.1227 218.584 31.1051 218.514 30.8497C218.336 30.3015 218.02 29.8085 217.597 29.4183C217.173 29.028 216.657 28.7536 216.097 28.6215C216.22 28.3396 216.431 28.4893 216.615 28.507L218.276 28.6303C218.628 28.6303 218.733 28.9209 218.865 29.1323C218.942 29.2901 219.074 29.4137 219.237 29.4788C219.399 29.544 219.58 29.546 219.744 29.4846C219.782 29.4852 219.82 29.4952 219.854 29.5136C219.887 29.532 219.916 29.5583 219.937 29.5902" fill="#FDFDFD"/>
<path d="M214.462 27.3356C213.856 28.0138 213.03 27.7936 212.283 27.8728C212.379 27.6777 212.519 27.5071 212.691 27.3743C212.863 27.2415 213.063 27.1499 213.276 27.1066C213.573 27.0329 213.844 26.8773 214.058 26.6574C214.41 26.3316 214.937 26.4637 215.385 26.3932L214.594 27.1242C214.594 27.2475 214.594 27.3004 214.462 27.3356Z" fill="#FDFDFD"/>
<path d="M211.132 39.516L208.601 38.4855C209.142 38.3974 209.694 38.3974 210.235 38.4855C210.481 38.534 210.702 38.6654 210.862 38.8579C211.022 39.0503 211.111 39.292 211.114 39.5424" fill="#FBFBFB"/>
<path d="M211.914 28.6303C212.345 28.5107 212.795 28.4689 213.241 28.507C212.977 28.8064 212.863 29.1499 212.511 29.2732C212.116 29.2732 211.844 29.1147 211.914 28.6303Z" fill="#F8FBFB"/>
<path d="M203.873 37.3054L203.486 37.1909C203.494 36.9357 203.452 36.6814 203.363 36.4423C203.504 36.3454 203.592 36.4423 203.688 36.5391C203.823 36.771 203.887 37.0374 203.873 37.3054Z" fill="#999CA1"/>
<path d="M203.715 36.5568L203.39 36.4599C203.249 36.3542 203.179 36.2045 203.337 36.0812C203.495 35.9579 203.557 36.1604 203.618 36.2661C203.656 36.3612 203.688 36.4582 203.715 36.5568Z" fill="#D6DEE8"/>
<path d="M216.642 28.507C216.475 28.5686 216.273 28.4365 216.123 28.6215C215.967 28.5385 215.789 28.5047 215.614 28.5246L215.499 28.4277C215.881 28.3699 216.271 28.397 216.642 28.507Z" fill="#C4C7CD"/>
<path d="M240.73 48.059C240.8 48.2175 240.862 48.376 240.932 48.5434L240.211 48.6138C240.075 48.5358 239.955 48.431 239.86 48.3056C238.859 47.1678 237.762 46.1188 236.582 45.1702C236.257 44.906 236.116 44.9765 235.975 45.3111C235.729 45.4961 235.492 45.3111 235.255 45.3111L235.439 44.5625C235.518 44.2983 235.439 44.1222 235.176 44.0517C235.351 43.3383 235.826 43.4969 236.301 43.6202C236.573 44.1662 237.118 44.4128 237.54 44.7915C237.752 44.9457 237.949 45.1197 238.129 45.3111C238.129 45.6634 238.181 46.0245 238.682 45.8748C239.37 46.3671 239.966 46.9785 240.44 47.6803C240.44 47.9181 240.616 47.9533 240.739 48.0678" fill="#99999C"/>
<path d="M235.975 45.3111C235.96 45.0916 236.006 44.8721 236.107 44.677C237.669 45.77 239.053 47.0979 240.211 48.6138C239.951 48.6939 239.676 48.7101 239.408 48.6611C239.14 48.612 238.888 48.4992 238.673 48.332C238.115 47.992 237.631 47.5427 237.25 47.0109C237.057 46.7816 236.937 46.4992 236.907 46.2007C236.845 45.3728 236.758 45.3199 235.975 45.3199" fill="#FDFDFD"/>
<path d="M217.406 27.7495C217.213 27.9609 216.976 27.8464 216.765 27.8376C216.202 27.8376 215.64 27.7672 215.007 27.7143C215.543 27.1383 216.132 26.6134 216.765 26.1466C218.063 25.1028 219.504 24.2515 221.045 23.6189C221.139 23.5759 221.23 23.5258 221.317 23.4692C221.734 23.692 222.173 23.872 222.626 24.0065C223.013 24.165 223.435 24.2883 223.602 24.7639C223.769 25.2395 223.338 25.3452 223.127 25.583C222.468 26.3404 221.888 27.1683 221.203 27.8993C220.922 27.874 220.657 27.7541 220.453 27.5589C220.249 27.3638 220.117 27.105 220.078 26.8248C220.057 26.6394 219.99 26.462 219.885 26.3084C219.779 26.1548 219.637 26.0296 219.472 25.944C219.234 25.7984 219.016 25.6238 218.821 25.4244C218.797 25.3932 218.765 25.3681 218.729 25.3508C218.694 25.3334 218.654 25.3244 218.615 25.3244C218.575 25.3244 218.536 25.3334 218.5 25.3508C218.464 25.3681 218.433 25.3932 218.408 25.4244C218.268 25.5918 218.47 25.6182 218.522 25.7063C218.707 25.9881 218.663 26.4813 218.373 26.587C218.176 26.6643 218 26.7891 217.862 26.9503C217.724 27.1116 217.628 27.3044 217.582 27.5117C217.582 27.5998 217.477 27.6527 217.415 27.7055" fill="white"/>
<path d="M223.461 29.053C222.881 28.9121 222.31 28.7536 221.704 28.6303C221.537 28.6303 221.589 28.507 221.589 28.4101C221.519 28.1635 221.704 28.0226 221.818 27.8552C222.275 27.1683 222.846 26.5782 223.365 25.9441C223.47 25.8208 223.619 25.5301 223.839 25.8472C223.875 26.0483 223.866 26.2548 223.815 26.4524C223.763 26.65 223.67 26.8341 223.54 26.9921C223.477 27.0481 223.427 27.1178 223.394 27.1959C223.361 27.2739 223.346 27.3585 223.351 27.4431C223.355 27.5277 223.378 27.6103 223.418 27.6847C223.459 27.7591 223.516 27.8234 223.584 27.8728C223.76 27.7231 223.69 27.4325 223.909 27.318C224.147 27.4589 223.953 27.6438 223.971 27.8024C223.989 27.9609 223.892 28.0842 224.059 28.1811C224.226 28.278 224.41 28.2515 224.305 28.4893C224.29 28.5399 224.265 28.5869 224.231 28.6275C224.198 28.668 224.156 28.7013 224.109 28.7252C224.062 28.7491 224.011 28.7632 223.959 28.7665C223.906 28.7699 223.854 28.7625 223.804 28.7448C223.452 28.6215 223.505 28.9121 223.444 29.0882" fill="#FDFDFD"/>
<path d="M223.857 25.8472C223.681 25.7327 223.602 25.8472 223.523 25.9793C222.824 26.7398 222.183 27.5524 221.607 28.4101H221.519C221.326 28.278 221.133 28.1459 221.185 27.8552C221.81 26.9483 222.5 26.0887 223.25 25.2835C223.391 25.125 223.576 25.0105 223.593 24.7727C223.646 25.1358 223.734 25.4928 223.857 25.8384" fill="#9C9C9C"/>
<path d="M240.431 47.6715C239.851 47.0638 239.262 46.4649 238.673 45.866C238.981 45.7339 239.35 45.6898 239.42 45.2495C239.433 45.1975 239.464 45.1518 239.507 45.121C239.551 45.0902 239.605 45.0764 239.658 45.0821C239.718 45.0929 239.773 45.1213 239.817 45.1636C239.86 45.206 239.891 45.2604 239.904 45.3199C239.98 45.6459 240.012 45.9806 240 46.3152C240 46.5618 240 46.8348 240.317 46.914C240.443 46.952 240.578 46.9477 240.702 46.9016C240.826 46.8555 240.931 46.7702 241.002 46.6586C241.16 46.4561 241.292 46.2183 241.565 46.1566C241.943 46.3152 241.951 46.5794 241.758 46.8964C241.491 46.9152 241.232 46.9948 241.001 47.1291C240.769 47.2635 240.571 47.4489 240.422 47.6715" fill="#FDFDFD"/>
<path d="M238.146 45.3023C237.497 44.9262 236.892 44.4771 236.345 43.9636C236.239 43.8844 236.345 43.7346 236.345 43.6113C236.412 43.6204 236.48 43.6204 236.547 43.6113C236.774 43.5004 237.032 43.4697 237.28 43.524C237.527 43.5783 237.748 43.7146 237.909 43.9108C238.375 44.3247 238.269 44.7915 238.172 45.3199" fill="#FDFDFD"/>
<path d="M241.767 46.8964C241.767 46.6322 241.811 46.3592 241.573 46.1566C241.855 45.9452 242.118 46.1566 242.391 46.1566C242.366 46.4103 242.399 46.6663 242.487 46.9052H241.767" fill="#999C9E"/>
<path d="M233.269 39.7185C233.409 39.2782 233.532 38.8378 233.682 38.4855C233.707 38.3926 233.76 38.3097 233.834 38.2482C233.908 38.1867 233.999 38.1496 234.095 38.1421C234.297 38.1421 234.332 38.371 234.394 38.5296C234.71 39.3046 234.71 39.3046 233.945 39.6305C233.735 39.7305 233.498 39.7613 233.269 39.7185Z" fill="#00609C"/>
<path d="M210.411 41.0044C210.626 40.9223 210.858 40.9003 211.084 40.9406C211.31 40.981 211.521 41.0822 211.694 41.2334C212.046 41.5212 212.356 41.8561 212.617 42.2286C212.687 42.3431 212.81 42.4752 212.722 42.6073C212.635 42.7394 212.432 42.6778 212.301 42.6073C212.171 42.5564 212.052 42.4817 211.949 42.3871C211.448 41.938 210.956 41.5064 210.411 40.978" fill="#00609C"/>
<path d="M221.185 27.864C221.3 28.049 221.414 28.2339 221.519 28.4189C221.326 28.4893 221.08 28.1635 220.895 28.5246C220.825 28.6655 220.816 28.4541 220.763 28.4277C220.711 28.4013 220.447 28.2692 220.289 28.1811C220.078 28.2516 219.876 28.1018 219.665 28.1811C219.582 28.4297 219.582 28.6987 219.665 28.9473C220.06 29.2908 220.06 29.3348 219.665 29.5814C219.313 29.6959 218.979 29.828 218.786 29.2732C218.698 29.0178 218.408 28.8328 218.215 28.6215C218.215 28.0226 217.688 27.9609 217.336 27.7407C217.538 27.318 217.38 26.6486 218.136 26.5958C218.399 26.5958 218.47 26.2611 218.47 25.9969C218.47 25.7327 218.312 25.7503 218.118 25.812C217.925 25.8736 218.022 25.7327 218.022 25.671C218.022 25.3892 218.276 25.2571 218.47 25.125C218.663 24.9929 218.733 25.2219 218.83 25.3188C218.98 25.5069 219.162 25.6677 219.366 25.7943C219.584 25.8797 219.772 26.0267 219.908 26.2175C220.044 26.4084 220.121 26.6347 220.131 26.8688C220.183 27.3973 220.64 27.6791 221.115 27.8376" fill="#306F9F"/>
<path d="M214.585 28.4189C214.524 28.8416 214.216 28.7359 213.953 28.7359C213.953 28.6214 213.68 28.5862 213.821 28.4101C213.857 28.3537 213.908 28.3093 213.969 28.2826C214.03 28.256 214.098 28.2482 214.164 28.2604C214.304 28.2604 214.445 28.366 214.585 28.4189Z" fill="#5976AC"/>
<path d="M214.462 27.3356L214.594 27.1242C214.779 27.1242 214.946 27.1242 214.972 27.3884C214.972 27.4853 214.911 27.547 214.823 27.5734C214.735 27.5998 214.506 27.5734 214.462 27.3356Z" fill="#5E78AC"/>
<path d="M214.902 28.4893C214.997 28.498 215.085 28.5414 215.15 28.6113C215.215 28.6812 215.252 28.7726 215.253 28.8681C215.253 28.9738 215.139 28.9738 215.06 28.9649C214.779 28.9649 214.752 28.7448 214.805 28.5158H214.902" fill="#617DB1"/>
<path d="M219.744 29.5902C220.139 29.3524 219.7 29.1675 219.744 28.9561C219.955 28.8416 220.131 28.9561 220.342 28.9561C220.291 29.198 220.168 29.419 219.99 29.5902H219.744Z" fill="#EDEDF0"/>
<path d="M219.691 28.1899C219.902 27.9785 220.104 28.093 220.315 28.1899C220.113 28.4101 219.902 28.2604 219.691 28.1899Z" fill="#C7CDD9"/>
<path d="M18.613 43.3119H36.8657V48.4905H25.037V53.5459H35.2575V58.4955H25.037V68.0426H18.613" fill="#3B6A9A"/>
<path d="M61.1997 57.7998C61.1997 64.9336 57.869 68.615 50.408 68.615C42.947 68.615 39.6163 65.0481 39.6163 57.7998V43.3031H46.0404V58.2754C46.0404 61.4988 47.1916 63.1105 50.4344 63.1105C53.6771 63.1105 54.8284 61.4988 54.8284 58.2754V43.3031H61.2612L61.1997 57.7998Z" fill="#3B6A9A"/>
<path d="M65.4443 43.3119H71.9913L80.6036 58.4955H80.7178V43.3119H86.7991V68.0426H80.1466L71.5344 52.6299V68.0426H65.4443V43.3119Z" fill="#3B6A9A"/>
<path d="M97.5996 43.3119H91.1667V68.1659H97.5996V43.3119Z" fill="#3B6A9A"/>
<path d="M108.497 62.8639H113.664C115.729 62.8639 117.109 62.177 117.109 60.0984C117.109 58.0199 115.615 57.2273 113.664 57.2273H108.497V62.8639ZM108.497 52.9734H113.436C113.771 53.0069 114.111 52.969 114.431 52.8621C114.751 52.7552 115.045 52.5818 115.294 52.3532C115.543 52.1246 115.741 51.846 115.875 51.5355C116.009 51.225 116.076 50.8897 116.072 50.5514C116.072 48.7107 114.806 48.1382 113.436 48.1382H108.497V52.9734ZM102.064 43.2855H113.664C117.909 43.171 122.619 44.3247 122.619 49.5034C122.594 50.545 122.279 51.559 121.711 52.4317C121.143 53.3044 120.344 54.0012 119.403 54.4442C120.657 54.8181 121.753 55.5967 122.52 56.6589C123.288 57.7211 123.684 59.0076 123.647 60.3186C123.647 66.1842 119.253 68.0249 113.98 68.0249H102.064V43.2855Z" fill="#3B6A9A"/>
<path d="M127.101 43.3119H146.848V48.4905H133.525V52.7444H145.696V57.8086H133.525V62.5204H147.19V68.0426H127.101V43.3119Z" fill="#3B6A9A"/>
<path d="M157.296 54.0039H162.692C164.643 54.0039 165.68 52.9734 165.68 51.1327C165.68 49.292 164.186 48.4905 162.464 48.4905H157.296V54.0039ZM150.864 43.3031H163.448C167.842 43.3031 172.06 45.2583 172.06 50.3489C172.126 51.6615 171.787 52.9627 171.089 54.0753C170.391 55.188 169.368 56.0579 168.158 56.5668V56.6813C170.795 57.2537 171.603 60.2482 171.718 62.6614C171.832 63.7006 171.946 67.382 172.755 68.298H166.436C165.865 67.4965 165.75 65.0745 165.75 64.3876C165.636 61.8599 165.17 59.3234 162.191 59.3234H157.296V68.4125H150.864V43.3031Z" fill="#3B6A9A"/>
<path d="M192.448 43.488C192.458 35.9674 195.408 28.7499 200.665 23.3828C205.922 18.0158 213.067 14.9262 220.57 14.7765V18.8102C220.572 19.0594 220.672 19.2978 220.848 19.474C221.024 19.6502 221.262 19.7503 221.51 19.7526C221.675 19.7531 221.836 19.7073 221.976 19.6205L236.309 11.3329C236.453 11.2498 236.572 11.1305 236.656 10.9867C236.739 10.843 236.783 10.68 236.784 10.5138C236.782 10.3489 236.738 10.1874 236.655 10.0452C236.571 9.90299 236.452 9.78519 236.309 9.70353L221.976 1.40713C221.833 1.32528 221.671 1.28223 221.506 1.28223C221.341 1.28223 221.179 1.32528 221.036 1.40713C220.893 1.48996 220.774 1.60948 220.692 1.75342C220.61 1.89736 220.568 2.06054 220.57 2.2262V6.30395C211.272 6.45008 202.367 10.0841 195.612 16.4887C188.857 22.8932 184.743 31.603 184.082 40.8987L192.536 45.7955C192.475 45.0381 192.448 44.2631 192.448 43.488Z" fill="#44963F"/>
<path d="M192.448 43.488C192.458 35.9674 195.408 28.7499 200.665 23.3828C205.922 18.0158 213.067 14.9262 220.57 14.7765V18.8102C220.572 19.0594 220.672 19.2978 220.848 19.474C221.024 19.6502 221.262 19.7503 221.51 19.7526C221.675 19.7531 221.836 19.7073 221.976 19.6205L236.309 11.3329C236.453 11.2498 236.572 11.1305 236.656 10.9867C236.739 10.843 236.783 10.68 236.784 10.5138C236.782 10.3489 236.738 10.1874 236.655 10.0452C236.571 9.90299 236.452 9.78519 236.309 9.70353L221.976 1.40713C221.833 1.32528 221.671 1.28223 221.506 1.28223C221.341 1.28223 221.179 1.32528 221.036 1.40713C220.893 1.48996 220.774 1.60948 220.692 1.75342C220.61 1.89736 220.568 2.06054 220.57 2.2262V6.30395C211.272 6.45008 202.367 10.0841 195.612 16.4887C188.857 22.8932 184.743 31.603 184.082 40.8987L192.536 45.7955C192.448 45.0381 192.448 44.2631 192.448 43.488Z" stroke="white" stroke-width="1.78" stroke-miterlimit="10"/>
<path d="M235.422 68.3949C228.917 72.1477 221.204 73.1983 213.935 71.3217C206.667 69.445 200.421 64.7903 196.535 58.3546L200.05 56.3378C200.192 56.2557 200.31 56.1376 200.391 55.9953C200.473 55.853 200.516 55.6917 200.516 55.5275C200.506 55.3577 200.452 55.1936 200.358 55.0519C200.278 54.9075 200.159 54.7885 200.015 54.7084L185.682 46.4209C185.539 46.3401 185.377 46.2979 185.213 46.2983C185.049 46.2988 184.887 46.342 184.745 46.4237C184.602 46.5053 184.483 46.6226 184.4 46.7642C184.316 46.9057 184.27 47.0666 184.267 47.2311V63.8591C184.269 64.0244 184.313 64.1864 184.396 64.3292C184.48 64.4719 184.598 64.5904 184.741 64.6731C184.884 64.7558 185.046 64.7997 185.211 64.8006C185.376 64.8015 185.538 64.7593 185.682 64.6782L189.197 62.6349C193.975 70.6317 201.57 76.5431 210.484 79.2023C219.398 81.8616 228.982 81.0756 237.346 76.9995V67.1619C236.722 67.5934 236.072 68.0426 235.404 68.3949" fill="#CC2818"/>
<path d="M235.422 68.3949C228.917 72.1477 221.204 73.1983 213.935 71.3217C206.667 69.445 200.421 64.7903 196.535 58.3546L200.05 56.3378C200.192 56.2557 200.31 56.1376 200.391 55.9953C200.473 55.853 200.516 55.6917 200.516 55.5275C200.506 55.3577 200.452 55.1936 200.358 55.0519C200.278 54.9075 200.159 54.7885 200.015 54.7084L185.682 46.4209C185.539 46.3401 185.377 46.2979 185.213 46.2983C185.049 46.2988 184.887 46.342 184.745 46.4237C184.602 46.5053 184.483 46.6226 184.4 46.7642C184.316 46.9057 184.27 47.0666 184.267 47.2311V63.8591C184.269 64.0244 184.313 64.1864 184.396 64.3292C184.48 64.4719 184.598 64.5904 184.741 64.6731C184.884 64.7558 185.046 64.7997 185.211 64.8006C185.376 64.8015 185.538 64.7593 185.682 64.6782L189.197 62.6349C193.975 70.6317 201.57 76.5431 210.484 79.2023C219.398 81.8616 228.982 81.0756 237.346 76.9995V67.1619C236.74 67.5934 236.09 68.0073 235.422 68.3949Z" stroke="white" stroke-width="1.78" stroke-miterlimit="10"/>
<path d="M235.457 18.6341C241.942 22.4082 246.697 28.5749 248.706 35.8163C250.714 43.0576 249.817 50.799 246.205 57.3858L242.689 55.369C242.55 55.2815 242.388 55.2351 242.224 55.2351C242.059 55.2351 241.898 55.2815 241.758 55.369C241.611 55.4454 241.488 55.562 241.404 55.7054C241.32 55.8488 241.278 56.0131 241.283 56.1792V72.772C241.287 72.9366 241.332 73.0975 241.416 73.239C241.5 73.3805 241.619 73.4978 241.761 73.5795C241.904 73.6611 242.065 73.7043 242.23 73.7048C242.394 73.7053 242.555 73.6631 242.698 73.5823L257.014 65.2947C257.158 65.2116 257.277 65.0923 257.36 64.9486C257.443 64.8049 257.488 64.6418 257.488 64.4756C257.486 64.3098 257.441 64.1474 257.358 64.004C257.275 63.8606 257.156 63.741 257.014 63.6566L253.499 61.6221C258.018 53.4765 259.329 43.9296 257.172 34.8636C255.015 25.7976 249.547 17.8705 241.846 12.6452L233.401 17.542C234.086 17.8678 234.763 18.2289 235.439 18.6165" fill="#EBB507"/>
<path d="M235.457 18.6341C241.942 22.4082 246.697 28.5749 248.706 35.8163C250.714 43.0576 249.817 50.799 246.205 57.3858L242.689 55.369C242.55 55.2815 242.388 55.2351 242.224 55.2351C242.059 55.2351 241.898 55.2815 241.758 55.369C241.611 55.4454 241.488 55.562 241.404 55.7054C241.32 55.8488 241.278 56.0131 241.283 56.1792V72.772C241.287 72.9366 241.332 73.0975 241.416 73.239C241.5 73.3805 241.619 73.4978 241.761 73.5795C241.904 73.6611 242.065 73.7043 242.23 73.7048C242.394 73.7053 242.555 73.6631 242.698 73.5823L257.014 65.2947C257.158 65.2116 257.277 65.0923 257.36 64.9486C257.443 64.8049 257.488 64.6418 257.488 64.4756C257.486 64.3098 257.441 64.1474 257.358 64.004C257.275 63.8606 257.156 63.741 257.014 63.6566L253.499 61.6221C258.018 53.4765 259.329 43.9296 257.172 34.8636C255.015 25.7976 249.547 17.8705 241.846 12.6452L233.401 17.542C234.104 17.8855 234.78 18.2465 235.457 18.6341Z" stroke="white" stroke-width="1.78" stroke-miterlimit="10"/>
</g>
<defs>
<clipPath id="clip0_2_316">
<rect width="259" height="81" fill="white" transform="translate(0 0.5)"/>
</clipPath>
</defs>
</svg>
